<svg xmlns="http://www.w3.org/2000/svg" width="117.793" height="138.256" viewBox="0 0 117.793 138.256">
  <g id="pjf-logo-mini" transform="translate(11.237 84.565)">
    <path id="path22" d="M0,0A1.79,1.79,0,0,1-1.419-1.592c.161-.081.315-.192.448-.259a2.742,2.742,0,0,0,1.123-1.6,3.312,3.312,0,0,1,.488,0,1.773,1.773,0,0,1,1.4,2.081A1.753,1.753,0,0,1,0,0M44.824-28.387h5.628v1.939H44.824Zm5.461-16.047.025.407-1.573.08.312,5.108h.079v1.913h.924L49.611-33.8H45.827l-.447-3.124h.936v-1.913h.393a3.455,3.455,0,0,0-.031-.561c-.035,0-.035-.041-.035-.041a.333.333,0,0,0-.12-.152c-.025-.056-.067-.129-.032-.185l.032-.183-.088-.168-.159-.243a.594.594,0,0,1-.091-.176.361.361,0,0,1,.035-.249l.012-.019.083-.316a.74.74,0,0,0,.049-.3.653.653,0,0,0,0-.377l-.012-.48a1.6,1.6,0,0,1-.6-.693,1.7,1.7,0,0,1-.144-.893v-.015c.056,0,.088.015.088-.048,0-.005-.032-.169-.088-.185a.246.246,0,0,1-.155-.152c-.072-.155-.025-.337.044-.337.012,0,.255.183.208.275l.013.009c.132.145.211.205.232.379,0,.06,0,.037.083,0l.044.473a.208.208,0,0,0,.079.183l.161.255.028.039.009-.013c.012-.012.048-.012.083-.012h.151a.156.156,0,0,1,.123.065l.051.045.1.091c.005-.247.107-.652.293-.7s.4.116.4.429a1.683,1.683,0,0,0,.157.6c.044.039.085.039.143.1a.569.569,0,0,1,.188.292l.089.36c.024.023.035.023.093.023h.027c.044,0,.128-.023.144-.088v-.127c0-.044.053-.129.1-.129l-.1-1.873-1.58.073-.021-.319,1.585-.073-.084-1.311.343-.041.073,1.333Zm-1.6,5.595L48.557-41.3a.452.452,0,0,0-.065.105H48.46c-.013.037-.067.037-.083.065a3.411,3.411,0,0,0,.161.792v.076l-.047-.023c-.032-.025-.045-.025-.1-.025,0,0-.037,0-.037.063l.037.177v.236c-.016.023-.037.023-.069.057-.031.012-.031.021-.06.056,0,.039-.041.039-.041.073a.2.2,0,0,1-.059.1.47.47,0,0,0,.059.259c0,.075.041.189.041.349v.1ZM46.221-33.4h2.891v3.433h.5l.841,1.183H44.824l.848-1.183h.549Zm1.444,20.123H54.7V-13.9l-.473.012v-.561h-.441v-.631H52.133v-7.643h-1.7l-.053-.056-2.715-2.807-2.74,2.807-.064.056H43.169v7.643H41.517v.631h-.448v.561l-.46-.012v.624Zm5.055-9.9H50.636l-2.841-2.875H52.72Zm-5.235-2.875h-.009l-2.809,2.875H42.56v-2.875Zm.18,1.692a1.8,1.8,0,0,1,1.271,1.037l.021.009.016.025.009.041h.011L49-23.2h.023v.016l.025.019v.064l.012.024h.007l.011.032h.008v.028l.025.051v.053l.02.032h.021l.019.053.013.016v.029H49.2l.013.056.008.012v.064h.029v.044l0,.035v.044l.02.053.005.013.009.044v.012l.007.013.021.051,0,.012.019.041v.015l.019.067v.041l.016.041v.007l.009.037v.22l.023.016v.168l.04.021v.183h-.363v6.388h-2.9v-6.388h-.319v-.2l.016-.039v-.129H45.9v-.095h.032v-.141l.021-.037v-.171l.016-.041.025-.012V-22.4h.023v-.069l.019-.053v-.044l.009-.035.035-.029v-.091l.019-.056h.013l.012-.029.016-.016h.019l.007-.053v-.032l.025-.053v-.051H46.2l.019-.028h.012v-.032h.011l.005-.024.028-.064V-23.2h.007l.013-.053h.019v-.041l.028-.025.009-.009a1.825,1.825,0,0,1,1.312-1.037m4.6-2.488h-.2a.352.352,0,0,0-.344.316.33.33,0,0,0,.344.331h.2a.333.333,0,0,0,.308-.331.362.362,0,0,0-.308-.316m-.023-.555h-.171a.245.245,0,0,0-.233.256.234.234,0,0,0,.233.189h.171a.242.242,0,0,0,.221-.189.253.253,0,0,0-.221-.256m-9.207.555h.195a.34.34,0,0,1,.313.316.318.318,0,0,1-.313.331H43.04a.314.314,0,0,1-.313-.331.334.334,0,0,1,.313-.316m.031-.555H43.2a.263.263,0,0,1,.265.256c0,.075-.117.189-.265.189h-.127a.249.249,0,0,1-.239-.189.256.256,0,0,1,.239-.256m4.863,81.1c17.323,0,31.912-6.584,43.5-20.643a2.291,2.291,0,0,0,.64-2.64c-.54-1.481-.956-2.74-1.472-4.076-.275-.729-.623-1.583-.893-2.312-2.408-.044-4.872-.217-7.128.559-.66.233-1.305.425-1.545.132-1.959-2.16,17.219-1.2,21.717-.867,1.321.107.963.767.54.767-.281,0-.187-.177-.561-.24a6.3,6.3,0,0,0-2.141-.055,2.7,2.7,0,0,0-1.435,1.748c-.4,1.135-.469,2.264.36,2.957a10,10,0,0,0,3.5,2.137c-.573-1.495-.067-2.948-.012-4.5l-1.585.627c-1.719.72,0,.72.34,2.593.065.153.065.2.037.2s-.037,0-.037-.028v-.029a2.732,2.732,0,0,1-.055-.305,1.865,1.865,0,0,0-.419-.621c-.517-.527-1.292-.835-1.16-1.44.155-.757,3.288-1.533,4.247-2.233.836-.552,1.236-.485.871-1.793a19.057,19.057,0,0,1,.3-10.712c.3-.851-.064-.983-.779-.983-3.317.028-6.755,0-10.209-.1,1.955-6.055-3.075-14.784-7.64-17.847V.051a39.508,39.508,0,0,1-.487,6.183,10.817,10.817,0,0,0,4.428,5.547c-1.224-.023-2.407-.023-3.583-.069-1.677-.035-2.2.864-2.317,2.312-.867,3.7-2.071,7.031-4.281,8.92-2.728,2.089,1.479,3.852,4.711,5.139,2.081.845,6.857,2.668,4.785,5.487a.51.51,0,0,1-.268.072c-.128,0,1.009-1.005-.037-1.989-1.948-1.867-9.059-4.265-10.42-4.875-.367.451-.723.845-1.095,1.287-.633.691-1.312,1.416-2.005,2.059A40.229,40.229,0,0,1,47.665,42.056,40.338,40.338,0,0,1,18.937,30.121a37.647,37.647,0,0,1-2.992-3.327c-1.529.681-8.4,3-10.323,4.856-1.051.984.091,1.989-.069,1.989a.344.344,0,0,1-.221-.072c-2.087-2.819,2.659-4.641,4.78-5.487,3.2-1.287,7.419-3.049,4.717-5.139-2.255-1.889-3.44-5.216-4.311-8.92-.116-1.448-.617-2.347-2.292-2.312-1.261.047-2.513.047-3.789.069A10.8,10.8,0,0,0,8.889,6.231,40.184,40.184,0,0,1,8.4.051V-6.007C3.809-2.944-1.2,5.785.725,11.84c-3.348.1-6.748.129-10.017.1-.716,0-1.069.132-.791.983a18.851,18.851,0,0,1,.328,10.712c-.379,1.308.031,1.241.872,1.793.963.7,4.1,1.476,4.267,2.233.1.605-.668.913-1.183,1.44a1.615,1.615,0,0,0-.4.621c0,.069-.045.159-.067.305v.029c0,.028-.025.035-.035.028s-.019-.051.009-.2c.331-1.873,2.075-1.873.331-2.593l-1.564-.627c.06,1.548.555,3-.019,4.5a9.937,9.937,0,0,0,3.5-2.137c.833-.693.763-1.823.36-2.957a2.654,2.654,0,0,0-1.432-1.748,6.288,6.288,0,0,0-2.141.055c-.352.063-.289.24-.56.24-.427,0-.771-.66.532-.767,4.535-.337,23.676-1.293,21.709.867-.231.293-.873.1-1.523-.132-2.255-.776-4.715-.6-7.129-.559-.272.729-.656,1.583-.912,2.312-.491,1.336-.943,2.595-1.459,4.076a2.273,2.273,0,0,0,.648,2.64C15.643,47.107,30.235,53.691,47.552,53.691h.381ZM75.74,36.1l.429-.332a1.521,1.521,0,0,1,.52-.3.759.759,0,0,1,.476.032,1.2,1.2,0,0,1,.423.347.792.792,0,0,1,.245.737,1.242,1.242,0,0,1-.56.7l-.355.257Zm1.841,2.241.489-.363a1.05,1.05,0,0,1,.52-.289.868.868,0,0,1,.515,0,1.394,1.394,0,0,1,.541.416,1.531,1.531,0,0,1,.3.619.693.693,0,0,1-.116.5,1.964,1.964,0,0,1-.457.452l-.445.349Zm-6.095.375.589-.34a1.2,1.2,0,0,1,.823-.144,1.006,1.006,0,0,1,.584.517,1.3,1.3,0,0,1,.2.632.69.69,0,0,1-.157.459,1.2,1.2,0,0,1-.469.381l-.553.28ZM88.37,21.24H87.009V16.645H85.64v-.873h.127a2.071,2.071,0,0,0,1.095-.245,1.263,1.263,0,0,0,.5-.808H88.37Zm1.161-1.855a1.887,1.887,0,0,1,.125-.725,1.3,1.3,0,0,1,.376-.564,1.308,1.308,0,0,1,.652-.3v-.028a1.138,1.138,0,0,1-.472-.2,1.111,1.111,0,0,1-.313-.335,1.98,1.98,0,0,1-.16-.344,2.961,2.961,0,0,1-.032-.381,1.891,1.891,0,0,1,.243-1.037,1.359,1.359,0,0,1,.665-.583,2.618,2.618,0,0,1,1.063-.171,2.866,2.866,0,0,1,1.092.171,1.64,1.64,0,0,1,.665.583,2.119,2.119,0,0,1,.217,1.037,1.517,1.517,0,0,1-.048.381,1.092,1.092,0,0,1-.148.344,1.191,1.191,0,0,1-.3.335,1.329,1.329,0,0,1-.489.2V17.8a1.217,1.217,0,0,1,.653.3,1.281,1.281,0,0,1,.388.564,2.076,2.076,0,0,1,.148.725,2.38,2.38,0,0,1-.069.52,1.935,1.935,0,0,1-.187.527,2.132,2.132,0,0,1-.337.485,2.465,2.465,0,0,1-.647.323,2.857,2.857,0,0,1-.943.135,2.972,2.972,0,0,1-.936-.135,1.83,1.83,0,0,1-.624-.323,3.165,3.165,0,0,1-.379-.485,2.719,2.719,0,0,1-.171-.527c-.015-.189-.037-.369-.037-.52m1.495-2.891h0a1.26,1.26,0,0,1,.151-.685.587.587,0,0,1,.5-.252.534.534,0,0,1,.5.252,1.17,1.17,0,0,1,.157.685,1.025,1.025,0,0,1-.075.481c-.057.148-.127.249-.235.272-.091.153-.211.153-.349.153a.377.377,0,0,1-.359-.153.4.4,0,0,1-.209-.272,1.033,1.033,0,0,1-.084-.481m-.117,2.891h0a2.054,2.054,0,0,1,.063-.587.791.791,0,0,1,.247-.388.7.7,0,0,1,.46-.141.834.834,0,0,1,.487.141,1.13,1.13,0,0,1,.239.388,4.286,4.286,0,0,1,.025.587,3.541,3.541,0,0,1-.025.555,1.019,1.019,0,0,1-.239.423.806.806,0,0,1-.487.127.685.685,0,0,1-.46-.127.758.758,0,0,1-.247-.423,1.685,1.685,0,0,1-.063-.555m7.619-4.528v.993H96.049L95.89,17.4h.023a1.1,1.1,0,0,1,.492-.425,3.954,3.954,0,0,1,.76-.085,3.122,3.122,0,0,1,.675.085,1.908,1.908,0,0,1,.457.337,1.313,1.313,0,0,1,.3.455,2.246,2.246,0,0,1,.153.587,2.958,2.958,0,0,1,.057.605,4.335,4.335,0,0,1-.1.98,2.012,2.012,0,0,1-.333.757,1.4,1.4,0,0,1-.653.5,2.869,2.869,0,0,1-1.079.176,3.521,3.521,0,0,1-.86-.107,2.358,2.358,0,0,1-.584-.335,1.231,1.231,0,0,1-.336-.444,1.251,1.251,0,0,1-.165-.452,1.39,1.39,0,0,1-.009-.479v-.173h1.268a1.043,1.043,0,0,0,.035.34c.019.105.051.237.085.36a.667.667,0,0,0,.208.277.564.564,0,0,0,.347.085.665.665,0,0,0,.612-.3,1.762,1.762,0,0,0,.192-.947,6.285,6.285,0,0,0-.019-.665,1.118,1.118,0,0,0-.159-.437.273.273,0,0,0-.223-.228.848.848,0,0,0-.848.092,1.024,1.024,0,0,0-.2.409H94.776l.248-3.512Zm2.487,2.911h0c0-.367.023-.769.032-1.035a2.449,2.449,0,0,1,.12-.709.676.676,0,0,1,.211-.333.5.5,0,0,1,.376-.133.552.552,0,0,1,.363.1.581.581,0,0,1,.215.337,1.463,1.463,0,0,1,.125.605,5.578,5.578,0,0,1,.039,1.005v.723a6.846,6.846,0,0,1-.032,1.028,2.321,2.321,0,0,1-.132.68.746.746,0,0,1-.215.395,1.01,1.01,0,0,1-.363.057,1.137,1.137,0,0,1-.36-.057.654.654,0,0,1-.227-.3,1.753,1.753,0,0,1-.12-.619c-.009-.252-.032-.627-.032-1Zm-1.38.437a9.56,9.56,0,0,1,.037-1.04A4.657,4.657,0,0,1,99.8,16.2a2.014,2.014,0,0,1,.344-.8,1.888,1.888,0,0,1,.617-.492,2.426,2.426,0,0,1,.991-.2,2.193,2.193,0,0,1,1,.171,1.19,1.19,0,0,1,.669.517,3.584,3.584,0,0,1,.363.989c.037.436.091.917.091,1.472.007.369,0,.739-.028,1.076a4.357,4.357,0,0,1-.152.961,2.116,2.116,0,0,1-.311.753,1.217,1.217,0,0,1-.653.508,1.918,1.918,0,0,1-.977.208,2.38,2.38,0,0,1-.991-.176,1.4,1.4,0,0,1-.668-.54,2.627,2.627,0,0,1-.356-1,8.653,8.653,0,0,1-.1-1.451M-5.187,21.24H-6.561V16.645H-7.895v-.873h.132a2.092,2.092,0,0,0,1.072-.245,1.19,1.19,0,0,0,.5-.808h1.008Zm1.444-6.383H.395v.98c-.256.417-.517.84-.757,1.233-.2.432-.384.889-.548,1.349a11.721,11.721,0,0,0-.417,1.411,12.818,12.818,0,0,0-.255,1.409H-3.008A10.23,10.23,0,0,1-2.768,20a6.682,6.682,0,0,1,.388-1.305,13.01,13.01,0,0,1,.615-1.381c.236-.423.545-.876.855-1.317H-3.743Zm6.132,2.911h0c0-.367,0-.732.017-1.035.047-.271.065-.492.12-.709a.6.6,0,0,1,.232-.333.485.485,0,0,1,.363-.133.58.58,0,0,1,.6.439,2.655,2.655,0,0,1,.113.605c.02.256.025.583.025,1.005v.723c0,.425-.005.744-.025,1.028a2.644,2.644,0,0,1-.113.68,1.133,1.133,0,0,1-.224.395,1.226,1.226,0,0,1-.741,0,.787.787,0,0,1-.22-.3,3.777,3.777,0,0,1-.132-.619c-.013-.252-.017-.627-.017-1Zm-1.38.437c0-.345,0-.708.032-1.04a6.5,6.5,0,0,1,.141-.961,2,2,0,0,1,.344-.8,1.758,1.758,0,0,1,.6-.492,2.42,2.42,0,0,1,.993-.2,2.437,2.437,0,0,1,1.028.171,1.4,1.4,0,0,1,.644.517,2.488,2.488,0,0,1,.331.989,7.992,7.992,0,0,1,.123,1.472c0,.4-.024.739-.024,1.076a9.571,9.571,0,0,1-.149.961,2.426,2.426,0,0,1-.324.753,1.32,1.32,0,0,1-.651.54,2.322,2.322,0,0,1-.977.176A2.588,2.588,0,0,1,2.112,21.2a1.225,1.225,0,0,1-.648-.54,2.1,2.1,0,0,1-.341-1,7.247,7.247,0,0,1-.113-1.451M8.841,21.24H7.467V16.645H6.136v-.873h.111a2.016,2.016,0,0,0,1.072-.245,1.2,1.2,0,0,0,.517-.808H8.841Zm13.5,16.667a.551.551,0,0,1,.312.085.485.485,0,0,1,.261.648,2.293,2.293,0,0,1-.3.715c-.157.292-.36.617-.624,1.024s-.5.744-.687,1a2.7,2.7,0,0,1-.547.571.5.5,0,0,1-.356.189,1.124,1.124,0,0,1-.343-.1c-.127-.1-.219-.179-.249-.267a1.213,1.213,0,0,1,0-.408,4.21,4.21,0,0,1,.283-.7c.173-.28.4-.633.644-1.053.261-.381.491-.7.693-1a4.13,4.13,0,0,1,.517-.557.842.842,0,0,1,.36-.145ZM8.64,33.936l5.372-4.868L15.8,30.9a2.9,2.9,0,0,1,.437.624,1.717,1.717,0,0,1,.157.671,1.612,1.612,0,0,1-.121.577,2.626,2.626,0,0,1-.288.532,5.059,5.059,0,0,1-.423.487,2.365,2.365,0,0,1-.855.511,1.559,1.559,0,0,1-.839.149,2.483,2.483,0,0,1-.8-.275,4.505,4.505,0,0,1-.748-.575l-.532-.557L9.648,34.976Zm9.232.313.511.472a1.089,1.089,0,0,1,.425.639,1.064,1.064,0,0,1-.331.756,1.379,1.379,0,0,1-.5.349.8.8,0,0,1-.533.048,1.151,1.151,0,0,1-.5-.364l-.476-.352Zm-3.648-3.4h0l.428.425a1.209,1.209,0,0,1,.313.5.716.716,0,0,1-.06.489,1.238,1.238,0,0,1-.388.491,1.377,1.377,0,0,1-.517.332,1.332,1.332,0,0,1-.524,0,1.715,1.715,0,0,1-.432-.309l-.469-.453Zm-1.605,7.06h0l4.824-5.441,2.081,1.784a2.132,2.132,0,0,1,.649.788,1.414,1.414,0,0,1,.088.9,1.774,1.774,0,0,1-.5.937,2.193,2.193,0,0,1-.665.531,1.406,1.406,0,0,1-.735.229,1.626,1.626,0,0,1-.735-.229v.04a1.2,1.2,0,0,1,.337.529.809.809,0,0,1,.016.511,2.426,2.426,0,0,1-.332.6,8.772,8.772,0,0,1-.595.764,2.837,2.837,0,0,0-.411.479,1.161,1.161,0,0,0-.221.393.513.513,0,0,0,.023.3l-.041.044-1.235-1.041a2.227,2.227,0,0,1,.135-.352,1.67,1.67,0,0,1,.236-.295L16.44,38.3a.928.928,0,0,0,.268-.624.889.889,0,0,0-.309-.612l-.617-.5-2.043,2.28Zm6.612.82a9.253,9.253,0,0,1,.725-1.009,4.005,4.005,0,0,1,.693-.769,3.855,3.855,0,0,1,.8-.483,1.874,1.874,0,0,1,.893-.021,2.58,2.58,0,0,1,1.049.409,3.086,3.086,0,0,1,.855.709,2.372,2.372,0,0,1,.328.813,1.675,1.675,0,0,1-.072.861,3.648,3.648,0,0,1-.4.984,7.983,7.983,0,0,1-.621,1.072c-.224.372-.471.705-.691,1.009a3.807,3.807,0,0,1-.716.756,2.6,2.6,0,0,1-.8.455,2.3,2.3,0,0,1-.9.084,3.56,3.56,0,0,1-1.057-.435,3.469,3.469,0,0,1-.841-.735,1.9,1.9,0,0,1-.34-.813,2.41,2.41,0,0,1,.069-.855,5.367,5.367,0,0,1,.4-1.007c.2-.315.395-.661.621-1.027M24.1,45.669h0l3.244-6.432,2.324,1.135a2.174,2.174,0,0,1,.649.451,1.377,1.377,0,0,1,.381.524,2.416,2.416,0,0,1,.124.585,3.1,3.1,0,0,1-.083.66,3.062,3.062,0,0,1-.231.571,2.772,2.772,0,0,1-.608.792,1.613,1.613,0,0,1-.7.377,2.048,2.048,0,0,1-.847.044,2.713,2.713,0,0,1-.9-.291l-.728-.327-1.28,2.556Zm4.083-4.831.564.271a1.026,1.026,0,0,1,.451.365.591.591,0,0,1,.149.471,1.268,1.268,0,0,1-.177.592,1.355,1.355,0,0,1-.4.5.647.647,0,0,1-.459.143,1.029,1.029,0,0,1-.523-.123l-.593-.281Zm.089,6.729L32.621,41.5l1.719.608-.672,7.372-1.459-.523.217-1.54-1.857-.673L29.719,48.1Zm4.773-4.6h.012l-.46,3.273-1.363-.495Zm2.229-.5,4.561,1.109L39.524,44.7l-1.539-.381L36.5,50.105l-1.419-.359L36.535,44l-1.541-.388Zm6.668,2.4h0l.691.057a1.306,1.306,0,0,1,.751.323,1,1,0,0,1,.208.747,1.852,1.852,0,0,1-.2.621.915.915,0,0,1-.421.3,1.611,1.611,0,0,1-.605.059l-.6-.059Zm-2.04,5.916.652-7.088,2.725.215a2.773,2.773,0,0,1,1.028.315,1.221,1.221,0,0,1,.615.653,1.958,1.958,0,0,1,.155,1.063,3.135,3.135,0,0,1-.219.8,1.9,1.9,0,0,1-.437.58,2.827,2.827,0,0,1-.725.24V47.6a1.3,1.3,0,0,1,.587.233.773.773,0,0,1,.325.435,3.054,3.054,0,0,1,.123.619,9.509,9.509,0,0,1-.067.968c0,.252-.012.469-.012.64a1.4,1.4,0,0,0,.047.407.365.365,0,0,0,.176.228v.088l-1.595-.124a.778.778,0,0,1-.113-.375,1.155,1.155,0,0,1,0-.372l.065-1.384a.993.993,0,0,0-.16-.688.686.686,0,0,0-.619-.268l-.781-.116-.291,3.036Zm7.249.429-1.492-.044.265-7.1,1.463.017Zm.511.145,1.589-7.247,1.8-.073,2.34,7.02-1.536.067-.425-1.451-1.961.069-.249,1.532Zm2.544-6.049h.019l.887,3.169-1.467.057Zm4.229-1.655,4.02-.813L58.72,44l-2.585.536.379,1.653,2.415-.521.259,1.173-2.421.5.416,1.857,2.657-.52.277,1.132-4.136.844Zm4.511-.933h0l4.472-1.391.353,1.133-1.513.479,1.891,5.621-1.431.461-1.908-5.645-1.513.471Zm6.036-1.959,1.337-.576,2.121,4.537a1.971,1.971,0,0,0,.312.571,1.228,1.228,0,0,0,.432.287.869.869,0,0,0,.531-.075.593.593,0,0,0,.428-.364.587.587,0,0,0,.069-.5,2.987,2.987,0,0,0-.2-.576L67.93,39.521l1.347-.605,2.087,4.549a2.732,2.732,0,0,1,.289,1.117,1.674,1.674,0,0,1-.188.856,1.258,1.258,0,0,1-.527.589,2.366,2.366,0,0,1-.751.464,3.384,3.384,0,0,1-.669.211,1.608,1.608,0,0,1-.681.108,1.338,1.338,0,0,1-.636-.183,2.088,2.088,0,0,1-.615-.467,3.1,3.1,0,0,1-.5-.849ZM73.224,44.7h0l-3.569-6.212,2.4-1.317a2.623,2.623,0,0,1,1.025-.319,1.906,1.906,0,0,1,.892.217,2.691,2.691,0,0,1,.713.795,2.617,2.617,0,0,1,.315.8,1.4,1.4,0,0,1-.069.712,1.616,1.616,0,0,1-.448.591l.023.053a1.393,1.393,0,0,1,.617-.145.969.969,0,0,1,.5.148,4.36,4.36,0,0,1,.469.5c.171.241.353.5.555.837a3.642,3.642,0,0,0,.319.524,1.755,1.755,0,0,0,.291.337.489.489,0,0,0,.293.124l.044.024-1.409.792c-.108-.1-.2-.173-.289-.261-.1-.124-.181-.208-.272-.309l-.7-1.217a1.384,1.384,0,0,0-.507-.483.942.942,0,0,0-.707.111l-.7.372,1.511,2.667Zm5.193-2.932L73.9,36.139l1.943-1.493a2.774,2.774,0,0,1,.732-.425,1.576,1.576,0,0,1,.721-.167,1.472,1.472,0,0,1,.695.193,1.763,1.763,0,0,1,.647.551,1.687,1.687,0,0,1,.425,1.319,1.328,1.328,0,0,1-.287.585l.005.036a1.345,1.345,0,0,1,.725-.2,1.678,1.678,0,0,1,.741.116,3.276,3.276,0,0,1,.649.581,3.544,3.544,0,0,1,.429.709,2.178,2.178,0,0,1,.107.721,1.753,1.753,0,0,1-.271.789,3.823,3.823,0,0,1-.748.793Zm-.376-8.839h0l3.077-2.624.8.921-1.971,1.649,1.139,1.289,1.856-1.583.8.887-1.871,1.567L83.2,36.513l2.044-1.772.795.911-3.192,2.689ZM18.729-50.733c10.112-4.647,19.505-6.895,28.643-6.895h.293c9.163,0,18.547,2.248,28.661,6.895Zm-2.636-.892a1.305,1.305,0,0,1,.6-.337l.032-.047a72.886,72.886,0,0,1,30.805-7.54,72.625,72.625,0,0,1,30.8,7.54l.044.047a1.193,1.193,0,0,1,.757.54l1.615-3.251a71.474,71.474,0,0,0-32.947-8.461h-.681c-10.447,0-21.4,2.8-32.6,8.395ZM10.424-62.953,8.9-66.078l-.668-.132c2.705-1.259,5.367-2.388,7.977-3.409l.9,2.207,1.409-.564-.8-2.163A91.1,91.1,0,0,1,36.4-74.913l.316,2.112,1.9-.268-.227-2.093a71.433,71.433,0,0,1,9.163-.495,67.491,67.491,0,0,1,9.419.545l-.235,1.971,1.883.208.291-1.949a95.924,95.924,0,0,1,18.773,4.847l-.764,2.141,1.293.481.827-2.109c2.595.968,5.2,2.109,7.873,3.34l-.521.1-1.551,3.16-.435-.221a3.2,3.2,0,0,0-2.18-.189h.013a2.473,2.473,0,0,0-1.567,1.319l-1.855,3.881a86.146,86.146,0,0,0-10.679-4.1l1.116-4.119a2.524,2.524,0,0,0-1.028-2.768c-.316-.167-.672-.365-1.005-.508a4.722,4.722,0,0,0-1.113-.067,2.418,2.418,0,0,0-2.233,1.861l-1.112,4.189A70.888,70.888,0,0,0,50.38-65.323v-4.233a2.518,2.518,0,0,0-1.737-2.421,3.908,3.908,0,0,0-1.091-.187,3.882,3.882,0,0,0-1.116.187,2.467,2.467,0,0,0-1.624,2.421L44.8-65.323a69.056,69.056,0,0,0-12.468,1.672l-1.1-4.175a2.4,2.4,0,0,0-2.209-1.861,4.683,4.683,0,0,0-1.123.067,10.071,10.071,0,0,0-1.019.508,2.516,2.516,0,0,0-1.019,2.768l1.12,4.119a82.876,82.876,0,0,0-10.627,4.036l-1.844-3.821a2.467,2.467,0,0,0-1.483-1.347,3.062,3.062,0,0,0-2.112.161ZM6.669-67.34c2.551-1.188,5.095-2.28,7.624-3.257L11.48-76.946,8.151-75.472l.64,1.419-1.324.66L6.795-74.75l-3.108,1.5Zm12.5-4.992a96.755,96.755,0,0,1,15-3.743l.139-.312-1.24-6.892-3.491.609.321,1.664-1.683.372-.448-1.721-6,1.615.42,1.648-1.515.471-.479-1.605L16.639-79ZM39.7-76.782l-.176-.164-.555-7.164,3.96-.344.111,1.649,1.271-.039-.025-1.721h6.732l-.023,1.721,1.28.039.108-1.649,3.944.344-.575,7.164-.179.179a79.68,79.68,0,0,0-8.021-.428,74.519,74.519,0,0,0-7.852.413m21.46.744a99.673,99.673,0,0,1,14.927,3.773l2.633-6.827-3.537-1.269-.52,1.683-1.344-.413.425-1.608-6.259-1.668L67.06-80.74l-1.633-.407.3-1.523-3.537-.676-1.187,6.959ZM80.977-70.5c2.507.98,5.061,2.079,7.605,3.288l3.036-6.04-3.105-1.5-.659,1.357-1.347-.66.653-1.419-3.34-1.475ZM86.062,1.52V-49.865H9.22V1.52A38.467,38.467,0,0,0,47.665,39.963,38.317,38.317,0,0,0,74.8,28.705,38.3,38.3,0,0,0,86.062,1.52M67.331-20.744a.208.208,0,0,1-.109-.016.107.107,0,0,1-.071-.113v-3.14c0-.029.025-.1.071-.1a.2.2,0,0,1,.147-.053l2.375.691v-16.28a.087.087,0,0,1,.032-.079l.864-1.819c.047-.133.379-.157.457,0l.86,1.819c0,.023.032.057.032.079v16.28l2.361-.691c.064,0,.129,0,.168.053.035,0,.067.072.067.1v3.14a.119.119,0,0,1-.067.113.277.277,0,0,1-.1.016h-.064l-2.361-.832v5.252a.175.175,0,0,1-.167.189h-1.94a.176.176,0,0,1-.139-.189v-5.252l-2.375.832ZM76.2-27.116v-10.8H76.6v10.8h2.068L76.689-36.2v-1.721l1.839-.129v1.608l-1.416.173,1.993,9.151H80.58c-.621.959-2.255,1.652-4.175,1.652s-3.56-.693-4.177-1.652h1.479l1.955-9.044-3.3.332v-1.9l3.747-.189v1.759h-.023l-1.973,9.044Zm-10.679,0h2.068L65.619-36.16v-1.759l3.765.189v1.9l-3.333-.332,1.971,9.044h1.5c-.624.959-2.279,1.652-4.2,1.652s-3.553-.693-4.171-1.652h1.463l2-9.151L63.2-36.44v-1.608l1.829.129V-36.2l-1.961,9.081h2.049v-10.8h.4ZM35.22,34.1a35.807,35.807,0,0,1-8.084-4.429H45.695l2.7-2.592H41.365l7.069-7.116H42.9l5.977-6h2.737L48.153,17.44l5.916.016-6.823,7.123,6.92-.023L49,29.671H68.178a36.327,36.327,0,0,1-8.1,4.429ZM83.358-12.219H58.951V-47.2H83.358Zm-56.7-3.991a.246.246,0,0,1-.2-.18,23.97,23.97,0,0,0-.8-4.909,29.61,29.61,0,0,0-1.092-2.971.461.461,0,0,0-.857-.06,14.454,14.454,0,0,0-1.049,2.617,28.811,28.811,0,0,0-1.035,5.323c0,.083-.119.217-.229.18-1.3-.051-2.649-.584-4.68-1.9a.233.233,0,0,1-.075-.221,17.432,17.432,0,0,1,2.745-7.721h3.109v.469h3.14v-.469h3.059a16.922,16.922,0,0,1,2.756,7.721.214.214,0,0,1-.1.221,9.259,9.259,0,0,1-4.66,1.9ZM23.1-27.6h2.037v1.439H23.1Zm2.172,8.769c-.375-.009-.753-.009-1.088-.009h-.321c-.34,0-.631,0-.915.009a20.8,20.8,0,0,1,.575-2.424,14.045,14.045,0,0,1,.56-1.575c.269.663.489,1.331.672,1.952.2.732.383,1.365.517,2.047m-5.729-8.957a13.657,13.657,0,0,1-2.592-5.2,49.014,49.014,0,0,1,.228-5.212,9.9,9.9,0,0,0,1.976-1.325,2.86,2.86,0,0,0,.6.668,3.632,3.632,0,0,0,1.308.657c.36,1.036.76,2.039,1.185,3,.429.991.871,2,1.305,2.867a1.013,1.013,0,0,0,.212.215.541.541,0,0,0,.293.088.526.526,0,0,0,.265-.088.509.509,0,0,0,.192-.215c.435-.871.908-1.876,1.331-2.895A28.316,28.316,0,0,0,27.023-38.2a3.833,3.833,0,0,0,1.331-.663,2.5,2.5,0,0,0,.555-.663A8.976,8.976,0,0,0,30.856-38.2a40.218,40.218,0,0,1,.259,5.212,13.748,13.748,0,0,1-2.579,5.2H25.628v-.471h-3.14v.471ZM21.095-41.16h.049a16.973,16.973,0,0,1,1.732.095c.432.012.817.088,1.16.088h.148c.293,0,.619-.076,1.016-.088a16.793,16.793,0,0,1,1.721-.095h.056c1.231,0,1.517.848.637,1.511a2.693,2.693,0,0,1-1.125.536.772.772,0,0,0-.227.107.406.406,0,0,0-.145.233c-.335.987-.763,1.989-1.164,2.936-.289.709-.6,1.368-.892,2.088-.337-.736-.628-1.379-.94-2.088-.409-.947-.781-1.94-1.113-2.9a.508.508,0,0,0-.16-.265,1.009,1.009,0,0,0-.224-.107,2.876,2.876,0,0,1-1.139-.536c-.943-.691-.671-1.511.609-1.511m10.385,3.1c.113.031.205.069.313.1a.942.942,0,0,1,.828.913A5.115,5.115,0,0,1,31.443-33.3c.063-1.492.129-3.191.037-4.761M16.639-33.3a5.078,5.078,0,0,1-1.2-3.747.935.935,0,0,1,.825-.913c.1-.032.228-.071.316-.1a46.2,46.2,0,0,0,.063,4.761M36.377-12.219H11.944V-47.2H36.377ZM81.441,12.695H13.871a34.33,34.33,0,0,1-1.927-11.14V-10.967H83.358V1.555a34.433,34.433,0,0,1-1.917,11.14M64.42,5.764h0a3.168,3.168,0,0,1,2.368-1.012A3.224,3.224,0,1,1,64.42,5.764M21.892-5.767l.359-1.943s.269,1.293.6,1.441a8.136,8.136,0,0,1,1.924,1.16c.691.552,2.724,3.636,3.715,4.239.955.573,3.653.737,5.205.491,1.605-.232,2.125-.1,2.772.379l.444-.215s1.68-.7,2.188.281c.489.964-.164,2.5-.224,3.223h6.644a2.81,2.81,0,0,0-.855-1.451C43.481,1.065,42.68.536,42.139.167c-.755-.488-1.025-.671-1.272-.645a.184.184,0,0,1-.176-.132c-.009-.06,0-.159.069-.168l.739-.573a.2.2,0,0,1,.207,0,2.986,2.986,0,0,0,2.021.873,2.418,2.418,0,0,0,1.936-.949A2.27,2.27,0,0,0,46.076-3.2H45.5c-.116,0-.18-.047-.18-.123V-4.477c0-.109.064-.148.18-.148h.111a1.644,1.644,0,0,1,.321-1.381,1.5,1.5,0,0,1,1.227-.5h.079a1.314,1.314,0,0,1,1.079.5,1.7,1.7,0,0,1,.305,1.381h.12c.085,0,.18.039.18.148V-3.32c0,.076-.095.123-.18.123h-.076l.025,1.019,2.119.395a13.477,13.477,0,0,1,0-1.885h-.211v-3.1H65.408v3.1h-.113v2.431h2.453c.327-.095.391-.233.368-.713V-4.9a.934.934,0,0,1,.259-.7,1.242,1.242,0,0,1,.952-.381,1.169,1.169,0,0,1,.893.363.827.827,0,0,1,.243.716v4.84a.54.54,0,0,1,.264.229.716.716,0,0,1,.063.471L69.784,3.084V4.433a.166.166,0,0,1-.079.129,4.5,4.5,0,1,1-7.444,3.421,5,5,0,0,1,.305-1.649l-9.677-.1a3.906,3.906,0,0,1,.944,2.516,3.768,3.768,0,0,1-7.536,0,3.694,3.694,0,0,1,.564-1.98l-1.637-.132c-.085,0-.153-.056-.153-.176V4.86c0-.055.009-.108.047-.108.021-.048.044-.048.12-.048h.753c-.041-.141-.095-.289-.164-.479l-.037-.192H38.9a1.06,1.06,0,0,0,.495.827c.469.375-.917-.108-1.2-.531-.256-.425-.092-.164-.139-.3h-.76a2.741,2.741,0,0,0-.236.845c-.092.675,1.645,3.357,1.645,3.357l-1.16,3.236s.425,1.084-.549,1.22a2.1,2.1,0,0,1-1.368-.212l1.091-1.245s1.476-2.072.341-2.964a17.827,17.827,0,0,1-2.532-3.105c-.224-.335-.355-.524-.355-.524-2.2.3-4.432.781-6.687.359-.247,1.963-.505,3.968-.757,5.967l-.34,1.352a2.43,2.43,0,0,1-.987.237c-.445-.057-.48-.316-.48-.316l.977-1.176-.2-5.873c-1.4-1.561-1.033-1.912-1.053-4.059-.46-1.611-1.121-3.311-1.361-4.087-.247-.816-2.34,1.409-2.731,1.363-.4-.081-.848-.672-.737-.993.113-.305,2.077-3.181,2.077-3.181M37.465,3.289a3.932,3.932,0,0,0-.173-2.259,1.6,1.6,0,0,0-.4-.615c.665-.479,1.191.2,1.2.776.041.353-.113,1.271-.113,2.1ZM68.021,7.984a1.252,1.252,0,0,1-1.233,1.248,1.256,1.256,0,1,1,0-2.512,1.248,1.248,0,0,1,1.233,1.264M66.788,5.071a2.908,2.908,0,0,1,2.871,2.913,2.889,2.889,0,0,1-5.777,0,2.925,2.925,0,0,1,2.907-2.913M52.621,6V5.96M51.105,8.749a1.054,1.054,0,0,1-1.028,1.023,1.04,1.04,0,0,1-1.028-1.023A1.018,1.018,0,0,1,50.077,7.7a1.031,1.031,0,0,1,1.028,1.049m-1.028,2.173a2.2,2.2,0,0,1-2.211-2.173,2.2,2.2,0,1,1,4.4,0,2.191,2.191,0,0,1-2.192,2.173m0-4.061a1.868,1.868,0,0,1,0,3.736,1.869,1.869,0,1,1,0-3.736M54.9,2.507a.308.308,0,0,1-.157-.1,3.275,3.275,0,0,0-1.372-1.231C53.161,1,52.912.873,52.72.7a.581.581,0,0,1-.337-.564v-2.22a.591.591,0,0,1,.473-.5H54.9a.19.19,0,0,1,.187.192l.005,4.729a.149.149,0,0,1-.128.171Zm6.041,0h-.053c-.076-.019-.108-.053-.108-.171l.013-4.729a.173.173,0,0,1,.164-.192h2.015a.616.616,0,0,1,.515.489V.167a.521.521,0,0,1-.316.5,7.832,7.832,0,0,1-.691.508,3.581,3.581,0,0,0-1.391,1.231.174.174,0,0,1-.148.1m-1.3-.467h-3.4a.414.414,0,0,1-.423-.395V-2.264a.455.455,0,0,1,.423-.425h3.4a.447.447,0,0,1,.429.425V1.645a.409.409,0,0,1-.429.395M1.532-28.387C.82-33.485,4.251-40.06,7.723-42.544c.252.423.453.876.675,1.337v11.779A10.491,10.491,0,0,1,6.82-27.287c-.1-.116-.171-.205-.271-.309a2.689,2.689,0,0,0-1.936-.825,2.71,2.71,0,0,0-1.652.612,2.57,2.57,0,0,0-1.429-.577m3.715,2.179v0a2.58,2.58,0,0,1,.732,1.615,1.711,1.711,0,0,0,.407-1.088,1.772,1.772,0,0,0-1.772-1.772,1.983,1.983,0,0,0-1.095.375,2.753,2.753,0,0,1,1.687.821l.017.015v.032ZM2.624-19.379l-.085.409c-.467.561-.928,1.231-1.356,1.867-.24-.68-.5-1.4-.788-2.036.079-.448.169-.829.245-1.161.133.011.247.011.357.011.139,0,.267,0,.381-.011a1.6,1.6,0,0,0,.28.288,2.543,2.543,0,0,0,.965.633M.287.987c0,.624-.007,1.287-.025,1.908a2.564,2.564,0,0,1-.2.539c-.381-.428-.8-.927-1.277-1.393-.328-.317-.707-.615-1.056-.975V.753A2.508,2.508,0,0,0-1.3.416,2.4,2.4,0,0,0-.157.92,1.858,1.858,0,0,0,.287.987M1.971,23.976c.183.968.365,1.968.568,2.989l-2.749.511c-.221-1.091-.427-2.172-.6-3.269.672-.053,2.056-.187,2.784-.231M-.776,6.663C-.659,6.1-.555,5.524-.4,4.939-3.089,1.252-7.88-1.592-11.237-2.031c.3,5.935,4.537,12.7,10.447,13a11.818,11.818,0,0,1-.139-2.7c0-.088.019-.187.019-.28V7.845L-.9,7.8V7.589l.025-.032v-.2h.007c.024-.261.065-.453.093-.693M.287-15.608a18.124,18.124,0,0,0-4.429-8.181C-7.476-18.647-8.116-10.641-3.9-6.407A6.017,6.017,0,0,1-3.2-6.719a2.651,2.651,0,0,1,.853-.963,1.428,1.428,0,0,1,.584-.271,14.106,14.106,0,0,1,.987-5.277h0l.029-.12v-.013h.021L-.7-13.4v-.037l.012-.016.028-.016h0v-.072l.021-.011V-13.6h.013v-.049h.016v-.011h.019v-.081h.025v-.019c.2-.448.407-.928.621-1.384a1.863,1.863,0,0,0,.229-.461M-.507-8.132l.075.009h.108A2.7,2.7,0,0,1,1.4-6.959a1.3,1.3,0,0,1,.213.356c.131,0,.256.035.373.035A3.005,3.005,0,0,1,3.1-6.113,10.785,10.785,0,0,0,8.4-12.18V-22.6C3.948-20.072-.564-12.561-.507-8.132M93.778-28.387c.707-5.1-2.733-11.673-6.2-14.157a13.2,13.2,0,0,0-.668,1.312v11.8a9.462,9.462,0,0,0,1.56,2.141c.088-.116.173-.205.268-.309a2.691,2.691,0,0,1,1.927-.825,2.754,2.754,0,0,1,1.671.612,2.659,2.659,0,0,1,1.441-.577m-3.72,2.179v0a2.576,2.576,0,0,0-.735,1.615,1.623,1.623,0,0,1-.4-1.088,1.758,1.758,0,0,1,1.744-1.772,1.827,1.827,0,0,1,1.088.375,2.867,2.867,0,0,0-1.671.821v.015h-.025Zm2.613,6.829.1.409A20.318,20.318,0,0,1,94.116-17.1a20.912,20.912,0,0,1,.8-2.036c-.1-.448-.185-.829-.28-1.161a3.418,3.418,0,0,1-.351.011c-.135,0-.249,0-.377-.011a.881.881,0,0,1-.275.288,2.7,2.7,0,0,1-.965.633M95,.987A2.067,2.067,0,0,0,95.472.92,2.42,2.42,0,0,0,96.6.416a2.585,2.585,0,0,0,.993.337v.312c-.365.36-.74.657-1.084.975-.451.467-.871.965-1.24,1.393a1.74,1.74,0,0,1-.22-.539C95.03,2.273,95.024,1.611,95,.987M93.325,23.976c.715.044,2.084.177,2.8.215-.173,1.113-.4,2.195-.615,3.285l-2.743-.511c.195-1.021.391-2.021.555-2.989M96.074,6.663c-.12-.564-.24-1.139-.379-1.724,2.7-3.687,7.469-6.531,10.86-6.969-.3,5.935-4.541,12.7-10.469,13a11.825,11.825,0,0,0,.164-2.7c-.021-.088-.021-.187-.044-.28V7.756h-.021V7.5l-.011-.044V7.411l-.021-.055c-.025-.261-.035-.453-.079-.693M95-15.608a18.143,18.143,0,0,1,4.452-8.181c3.339,5.143,3.973,13.148-.245,17.383a5.532,5.532,0,0,0-.688-.312,2.815,2.815,0,0,0-.867-.963,1.641,1.641,0,0,0-.577-.271,14.092,14.092,0,0,0-1-5.277l-.035-.12h-.011V-13.4H96l-.009-.037v-.032h-.035v-.12h-.019l0-.016h-.019v-.049H95.89v-.036l-.021-.056v-.019c-.2-.448-.4-.928-.637-1.384-.079-.155-.164-.291-.236-.461M95.8-8.132l-.08.009h-.1a2.777,2.777,0,0,0-1.735,1.164,1.274,1.274,0,0,0-.217.356c-.111,0-.239.035-.349.035a2.559,2.559,0,0,0-1.1.455,10.643,10.643,0,0,1-5.312-6.067V-22.6c4.395,2.493,8.957,9.611,8.892,14.472M92-26.088a1.755,1.755,0,0,0-1.747,1.759A1.727,1.727,0,0,0,92-22.6a1.732,1.732,0,0,0,1.76-1.725A1.76,1.76,0,0,0,92-26.088m2.016-1.363a1.771,1.771,0,0,1,1.765,1.772,1.741,1.741,0,0,1-1.085,1.6c.007-.095.007-.18.007-.249a2.8,2.8,0,0,0-.772-1.925h-.019a2.873,2.873,0,0,0-1.12-.685,1.756,1.756,0,0,1,1.224-.511m-3.957,5.036h.025A2.752,2.752,0,0,0,92-21.652a2.771,2.771,0,0,0,1.483-.425.893.893,0,0,0,.021.141,1.755,1.755,0,0,1-1.765,1.744,1.746,1.746,0,0,1-1.76-1.744,1.608,1.608,0,0,1,.08-.479m4.159-.6a3.115,3.115,0,0,1,.211,1.079,2.282,2.282,0,0,1-.075.685,1.773,1.773,0,0,0,1.7-1.764,1.707,1.707,0,0,0-.171-.731,2.614,2.614,0,0,1-1.668.731m3.9,20.659a1.778,1.778,0,0,1-2.045-1.415,1.755,1.755,0,0,1,1.391-2.056,1.78,1.78,0,0,1,2.049,1.409A1.766,1.766,0,0,1,98.12-2.356M95.289,0a1.732,1.732,0,0,1-2.021-1.368A1.773,1.773,0,0,1,94.64-3.449a3.663,3.663,0,0,1,.513,0,2.739,2.739,0,0,0,1.113,1.6c.139.067.293.177.476.259A1.829,1.829,0,0,1,95.289,0m2.9-.215A2.2,2.2,0,0,1,97.256-.3a2.974,2.974,0,0,0,.4-1.072,2.2,2.2,0,0,0,.624-.06A3.19,3.19,0,0,0,99.63-2.1,1.794,1.794,0,0,1,98.193-.215m-.9-6.545h-.007A2.7,2.7,0,0,0,95.56-5.619a2.993,2.993,0,0,0-.492,1.58,1.807,1.807,0,0,1-.675-1.069A1.78,1.78,0,0,1,95.8-7.169a1.732,1.732,0,0,1,1.491.409M93.76-4.131a2.543,2.543,0,0,0-1.019.887,1.6,1.6,0,0,0-.245.485,1.512,1.512,0,0,1-.4-.852,1.72,1.72,0,0,1,1.341-2.008,1.987,1.987,0,0,0,.008.536l.016.141a2.646,2.646,0,0,0,.3.811M3.3-26.088a1.736,1.736,0,0,1,1.731,1.759A1.708,1.708,0,0,1,3.3-22.6a1.716,1.716,0,0,1-1.744-1.725A1.744,1.744,0,0,1,3.3-26.088M1.275-27.451A1.757,1.757,0,0,0-.467-25.679a1.736,1.736,0,0,0,1.056,1.6v-.249a2.69,2.69,0,0,1,.789-1.925H1.4a2.839,2.839,0,0,1,1.119-.685,1.759,1.759,0,0,0-1.241-.511m3.948,5.036H5.205a2.727,2.727,0,0,1-1.907.763,2.9,2.9,0,0,1-1.5-.425v.141a1.758,1.758,0,0,0,1.765,1.744,1.766,1.766,0,0,0,1.765-1.744,1.087,1.087,0,0,0-.109-.479m-4.135-.6a2.962,2.962,0,0,0-.236,1.079,2.607,2.607,0,0,0,.091.685A1.757,1.757,0,0,1-.747-23.015a1.739,1.739,0,0,1,.157-.731,2.626,2.626,0,0,0,1.677.731M-2.825-2.356A1.774,1.774,0,0,0-.776-3.771a1.757,1.757,0,0,0-1.4-2.056,1.773,1.773,0,0,0-2.04,1.409A1.776,1.776,0,0,0-2.825-2.356M-2.891-.215A1.749,1.749,0,0,1-4.323-2.1a2.956,2.956,0,0,0,1.337.668,2.35,2.35,0,0,0,.636.06A2.971,2.971,0,0,0-1.98-.3a2.028,2.028,0,0,1-.911.081M-2-6.76A1.73,1.73,0,0,1-.507-7.169,1.764,1.764,0,0,1,.9-5.108,1.718,1.718,0,0,1,.219-4.039a2.657,2.657,0,0,0-.477-1.58A2.637,2.637,0,0,0-2-6.76M1.555-4.131a2.4,2.4,0,0,1,1,.887,1.629,1.629,0,0,1,.268.485,1.959,1.959,0,0,0,.4-.852,1.732,1.732,0,0,0-1.34-2.008,2.883,2.883,0,0,1-.032.536l-.019.141a2.861,2.861,0,0,1-.277.811" fill="#626366"/>
  </g>
</svg>
