<svg xmlns="http://www.w3.org/2000/svg" width="425.2" height="182.61" viewBox="0 0 425.2 182.61">
  <g id="Grupo_47" data-name="Grupo 47" transform="translate(-255.056 -842.587)">
    <g id="Grupo_45" data-name="Grupo 45">
      <path id="_Compound_Path_" data-name="&lt;Compound Path&gt;" d="M286.25,86.56a56.672,56.672,0,0,1-12.47,26.85,11.41,11.41,0,0,0-4.01-4.69A48.447,48.447,0,0,0,280.78,86.2a11.383,11.383,0,0,0,3.46.54A11.05,11.05,0,0,0,286.25,86.56Zm-8.51-40.95a56.38,56.38,0,0,1,7.9,18.46,12.846,12.846,0,0,0-1.4-.08,11.445,11.445,0,0,0-4.07.75,48.363,48.363,0,0,0-6.92-15.26A11.524,11.524,0,0,0,277.74,45.61ZM230.18,19.95a56.591,56.591,0,0,1,31.89,9.77,11.4,11.4,0,0,0-4.3,5.27,48.567,48.567,0,1,0-5.23,86.39,11.4,11.4,0,0,0,4.05,5.88A56.9,56.9,0,1,1,230.18,19.95Z" transform="translate(232.486 822.637)" fill="#2c2e35"/>
      <path id="_Compound_Path_2" data-name="&lt;Compound Path&gt;" d="M217.08,115.21a40.533,40.533,0,0,0,27.83-76.12,7.882,7.882,0,0,1,.09,1.2,8.12,8.12,0,0,1-1.98,5.34,34.6,34.6,0,0,1-23.57,64.72A8.273,8.273,0,0,1,217.08,115.21ZM190.45,68.85a41.262,41.262,0,0,0-.79,8,40.423,40.423,0,0,0,13.69,30.36,8.265,8.265,0,0,1,2.43-3.93,34.57,34.57,0,0,1-11.7-32.73A8.284,8.284,0,0,1,190.45,68.85Zm39.13-32.52A40.512,40.512,0,0,0,196.5,54.31a8.088,8.088,0,0,1,4.07,1.59A34.541,34.541,0,0,1,228.1,42.26h.7a8.5,8.5,0,0,1-.24-1.97A8.185,8.185,0,0,1,229.58,36.33Z" transform="translate(232.486 822.637)" fill="#289bd0"/>
      <path id="_Path_" data-name="&lt;Path&gt;" d="M263.46,110.7a7.49,7.49,0,1,1-7.49,7.49A7.486,7.486,0,0,1,263.46,110.7Z" transform="translate(232.486 822.637)" fill="#289bd0"/>
      <path id="_Path_2" data-name="&lt;Path&gt;" d="M268.33,31.72a7.49,7.49,0,1,1-7.49,7.49A7.5,7.5,0,0,1,268.33,31.72Z" transform="translate(232.486 822.637)" fill="#289bd0"/>
      <path id="_Path_3" data-name="&lt;Path&gt;" d="M195.65,57.36a5.12,5.12,0,1,1-5.12,5.12A5.123,5.123,0,0,1,195.65,57.36Z" transform="translate(232.486 822.637)" fill="#289bd0"/>
      <path id="_Path_4" data-name="&lt;Path&gt;" d="M211.28,104.26a5.12,5.12,0,1,1-5.11,5.12A5.117,5.117,0,0,1,211.28,104.26Z" transform="translate(232.486 822.637)" fill="#2c2e35"/>
      <path id="_Path_5" data-name="&lt;Path&gt;" d="M236.78,35.17a5.12,5.12,0,1,1-5.12,5.12A5.117,5.117,0,0,1,236.78,35.17Z" transform="translate(232.486 822.637)" fill="#2c2e35"/>
      <path id="_Compound_Path_3" data-name="&lt;Compound Path&gt;" d="M230.19,53.2A23.18,23.18,0,1,1,207,76.38,23.183,23.183,0,0,1,230.19,53.2Zm8.71,14.43a12.3,12.3,0,0,1-1.62,18.7l-1.9,1.14,2.25,4.88,1.14-.6a17.679,17.679,0,0,0-.98-31.41l-1.28-.61-1.73,3.57-4.85,9.57-4.76-9.42-1.74-3.58-1.3.69a17.677,17.677,0,0,0-.54,31.18l1.12.58,2.23-4.88-1.87-1.13a12.286,12.286,0,0,1-1.92-18.34l.1-.11,7.44,13.72,1.18,2.38,1.31-2.38,7.62-14.05Z" transform="translate(232.486 822.637)" fill="#2c2e35" fill-rule="evenodd"/>
      <path id="_Path_6" data-name="&lt;Path&gt;" d="M284.24,67.88a7.49,7.49,0,1,1-7.49,7.49A7.486,7.486,0,0,1,284.24,67.88Z" transform="translate(232.486 822.637)" fill="#2c2e35"/>
    </g>
    <g id="Grupo_46" data-name="Grupo 46">
      <path id="_Compound_Path_4" data-name="&lt;Compound Path&gt;" d="M74.47,202.56H69.16V159.15H81.19a36.53,36.53,0,0,1,4.97.32,22.668,22.668,0,0,1,4.2,1.01,12.152,12.152,0,0,1,5.91,4.18,11.345,11.345,0,0,1,2,6.84,12.332,12.332,0,0,1-1.31,5.82,11.355,11.355,0,0,1-3.81,4.21,18.185,18.185,0,0,1-6.07,2.55,27.152,27.152,0,0,1-7.23.86c-.4,0-.81,0-1.21-.01l1.72-4.79a14.6,14.6,0,0,0,4.91-.57,12.365,12.365,0,0,0,4.27-1.69,6.751,6.751,0,0,0,2.4-2.73,8.535,8.535,0,0,0,.75-3.65,6.756,6.756,0,0,0-1.22-4.16,7.6,7.6,0,0,0-3.45-2.46,14.059,14.059,0,0,0-3.21-.73,34.867,34.867,0,0,0-4.21-.21H74.47v38.62Zm-51.9,0,17.65-43.41h4.59l17.71,43.41H56.77l-5.1-13.03-1.91-4.78-1.67-4.15q-2.685-6.75-5.48-14.73h-.13q-2.925,8.1-5.57,14.74l-1.68,4.14h.01c-2.25,5.99-4.56,11.63-6.99,17.81Zm89.82,0h-5.32V159.15H119.1a36.423,36.423,0,0,1,4.97.32,22.668,22.668,0,0,1,4.2,1.01,12.06,12.06,0,0,1,5.91,4.18,11.345,11.345,0,0,1,2,6.84,12.45,12.45,0,0,1-1.3,5.82,11.383,11.383,0,0,1-3.82,4.21,18.1,18.1,0,0,1-6.07,2.55,27.152,27.152,0,0,1-7.23.86c-.41,0-.83,0-1.25-.01l1.58-4.79a15.424,15.424,0,0,0,5.09-.57,12.2,12.2,0,0,0,4.27-1.69,6.854,6.854,0,0,0,2.41-2.73,8.533,8.533,0,0,0,.74-3.65,6.756,6.756,0,0,0-1.22-4.16,7.6,7.6,0,0,0-3.45-2.46,13.937,13.937,0,0,0-3.21-.73,34.867,34.867,0,0,0-4.21-.21h-6.12Z" transform="translate(232.486 822.637)" fill="#2c2e35"/>
      <g id="_Group_" data-name="&lt;Group&gt;" transform="translate(232.486 822.637)">
        <path id="_Path_7" data-name="&lt;Path&gt;" d="M190.78,159.09l-10.16,29.54c-.5,1.48-.94,2.77-1.31,3.89-.32-.97-.69-2.1-1.11-3.38l-10.05-30.05h-9.88V202.5h7.17V171.86l10.41,30.64h6.29l10.47-30.16V202.5h7.17V159.09Z" fill="#2c2e35"/>
        <path id="_Path_8" data-name="&lt;Path&gt;" d="M230.94,159.09h-7.2L207.07,202.5h7.86l12.42-34.56,13.06,34.56h8.29Z" fill="#2c2e35"/>
        <path id="_Path_9" data-name="&lt;Path&gt;" d="M283.5,183.32a13.153,13.153,0,0,0-5.56-4.42,52.214,52.214,0,0,0-9.08-2.62c-5.18-1.17-7-2.09-7.62-2.66a3.684,3.684,0,0,1-1.27-2.89,4.417,4.417,0,0,1,1.88-3.56c1.3-1.05,3.47-1.58,6.47-1.58,2.86,0,5.02.59,6.43,1.75a7.281,7.281,0,0,1,2.46,5.16l.1.87,6.84-.52-.03-.87a13.124,13.124,0,0,0-2.12-6.8,12.369,12.369,0,0,0-5.66-4.58,21.244,21.244,0,0,0-8.24-1.51,20.234,20.234,0,0,0-7.73,1.44,11.623,11.623,0,0,0-5.46,4.36,11.215,11.215,0,0,0-1.88,6.19,10.1,10.1,0,0,0,1.56,5.49,11.689,11.689,0,0,0,4.63,4.07,37.03,37.03,0,0,0,7.98,2.59,72.286,72.286,0,0,1,7.05,1.92,7.256,7.256,0,0,1,3.23,2.09,4.3,4.3,0,0,1,.91,2.75,4.825,4.825,0,0,1-.97,2.91,6.56,6.56,0,0,1-3.07,2.17,13.9,13.9,0,0,1-5.04.84,14.556,14.556,0,0,1-5.82-1.11,8.213,8.213,0,0,1-3.65-2.81,10.148,10.148,0,0,1-1.52-4.55l-.1-.87-6.74.59.02.85a14.462,14.462,0,0,0,2.35,7.71,13.774,13.774,0,0,0,6.19,5.11,24.063,24.063,0,0,0,9.51,1.67,19.43,19.43,0,0,0,8.13-1.66,13.061,13.061,0,0,0,5.67-4.75,11.957,11.957,0,0,0,1.98-6.54A10.891,10.891,0,0,0,283.5,183.32Z" fill="#2c2e35"/>
        <path id="_Path_10" data-name="&lt;Path&gt;" d="M288.34,159.09v6.77h13.69V202.5h7.37V165.86h13.73v-6.77Z" fill="#2c2e35"/>
        <path id="_Path_11" data-name="&lt;Path&gt;" d="M338.49,195.73V183.46h22.98v-6.75H338.49V165.86h24.54v-6.77H331.12V202.5h32.87v-6.77Z" fill="#2c2e35"/>
        <path id="_Compound_Path_5" data-name="&lt;Compound Path&gt;" d="M411.22,202.5h-9.13l-5.77-9.08c-1.59-2.46-2.91-4.36-3.92-5.64a11.563,11.563,0,0,0-2.56-2.57,7.331,7.331,0,0,0-2.22-.98,14.762,14.762,0,0,0-2.84-.18h-5.44V202.5h-7.37V159.09h19.36a25.2,25.2,0,0,1,8.77,1.18,10.2,10.2,0,0,1,5.08,4.34,12.755,12.755,0,0,1,1.87,6.75,11.382,11.382,0,0,1-3.12,8.09,13.633,13.633,0,0,1-6.81,3.65,10.263,10.263,0,0,1,1.24.94,29.633,29.633,0,0,1,4.71,5.71Zm-11.71-31.14a5.248,5.248,0,0,0-1.82-4.15c-1.25-1.1-3.31-1.66-6.14-1.66H379.34v11.87h10.88a16.879,16.879,0,0,0,5.57-.72,5.305,5.305,0,0,0,2.77-2.12A5.8,5.8,0,0,0,399.51,171.36Z" fill="#2c2e35" fill-rule="evenodd"/>
        <path id="_Path_12" data-name="&lt;Path&gt;" d="M445.93,183.32a13.091,13.091,0,0,0-5.56-4.42,51.749,51.749,0,0,0-9.07-2.62c-5.18-1.17-7-2.09-7.62-2.66a3.653,3.653,0,0,1-1.27-2.89,4.406,4.406,0,0,1,1.87-3.56c1.3-1.05,3.48-1.58,6.47-1.58,2.86,0,5.03.59,6.44,1.75a7.32,7.32,0,0,1,2.46,5.16l.09.87,6.85-.52-.03-.87a13.133,13.133,0,0,0-2.13-6.8,12.318,12.318,0,0,0-5.66-4.58,21.208,21.208,0,0,0-8.24-1.51,20.182,20.182,0,0,0-7.72,1.44,11.574,11.574,0,0,0-5.46,4.36,11.135,11.135,0,0,0-1.88,6.19,10.091,10.091,0,0,0,1.55,5.49,11.79,11.79,0,0,0,4.64,4.07,36.7,36.7,0,0,0,7.97,2.59,72.8,72.8,0,0,1,7.06,1.92,7.375,7.375,0,0,1,3.23,2.09,4.29,4.29,0,0,1,.9,2.75,4.761,4.761,0,0,1-.97,2.91,6.476,6.476,0,0,1-3.06,2.17,13.955,13.955,0,0,1-5.05.84,14.507,14.507,0,0,1-5.81-1.11,8.3,8.3,0,0,1-3.66-2.81,10.271,10.271,0,0,1-1.51-4.55l-.11-.87-6.74.59.02.85a14.558,14.558,0,0,0,2.36,7.71,13.721,13.721,0,0,0,6.19,5.11,24.029,24.029,0,0,0,9.51,1.67,19.463,19.463,0,0,0,8.13-1.66,13.032,13.032,0,0,0,5.66-4.75,11.886,11.886,0,0,0,1.99-6.54A10.9,10.9,0,0,0,445.93,183.32Z" fill="#2c2e35"/>
      </g>
    </g>
  </g>
</svg>
