<svg xmlns="http://www.w3.org/2000/svg" width="863.176" height="249.33" viewBox="0 0 863.176 249.33">
  <g id="Grupo_43" data-name="Grupo 43" transform="translate(-941.903 -272.495)">
    <g id="g20" transform="translate(946.337 387.944)">
      <path id="path22" d="M-5.43-28.031A61.66,61.66,0,0,1-22.122-68.9,57.157,57.157,0,0,1-1.577-114.262" transform="translate(22.133 114.262)" fill="none" stroke="#f05e5e" stroke-linecap="round" stroke-miterlimit="10" stroke-width="8.867"/>
    </g>
    <g id="g24" transform="translate(1069.387 493.617)">
      <path id="path26" d="M-5.616,0-22.892.145" transform="translate(22.892)" fill="none" stroke="#f05e5e" stroke-linecap="round" stroke-miterlimit="10" stroke-width="8.867"/>
    </g>
    <g id="g28" transform="translate(1041.41 276.93)">
      <path id="path30" d="M0-25.933,2.847-50.575A56.928,56.928,0,0,1,61.309-105.7h0c33.508.635,60.959,28.748,60.762,62.231l-.56,95.787A58.767,58.767,0,0,1,106.022,92.05" transform="translate(0 105.712)" fill="none" stroke="#f05e5e" stroke-linecap="round" stroke-miterlimit="10" stroke-width="8.867"/>
    </g>
    <g id="g32" transform="translate(1117.668 306.374)">
      <path id="path34" d="M-2.663,0h0a7.673,7.673,0,0,1,7.88,7.43l.6,5.169,5.17.6a7.673,7.673,0,0,1,7.43,7.88,8.41,8.41,0,0,1-8.388,8.19l-12.911-.074A7.879,7.879,0,0,1-10.777,21.3l-.076-12.911A8.412,8.412,0,0,1-2.663,0Z" transform="translate(10.853 0.002)" fill="none" stroke="#f05e5e" stroke-linecap="round" stroke-miterlimit="10" stroke-width="6.477"/>
    </g>
    <g id="g36" transform="translate(974.696 364.685)">
      <path id="path38" d="M-25.418-8.72h-72.89a5.3,5.3,0,0,1-5.3-5.3v-11.7a9.826,9.826,0,0,1,9.826-9.826h63.844a9.826,9.826,0,0,1,9.826,9.826v11.7A5.3,5.3,0,0,1-25.418-8.72Z" transform="translate(103.61 35.547)" fill="none" stroke="#32969B" stroke-linecap="round" stroke-miterlimit="10" stroke-width="6.824"/>
    </g>
    <g id="g40" transform="translate(974.697 408.303)">
      <path id="path42" d="M-24.455-35.794H-91.418a8.266,8.266,0,0,1-8.266-8.266v-92.954a8.889,8.889,0,0,1,8.89-8.89h65.715a8.89,8.89,0,0,1,8.89,8.89V-44.06A8.266,8.266,0,0,1-24.455-35.794Z" transform="translate(99.684 145.904)" fill="none" stroke="#32969B" stroke-linecap="round" stroke-miterlimit="10" stroke-width="6.824"/>
    </g>
    <path id="path44" d="M265.042-714.825h-61.66v-9.618h61.66Z" transform="translate(782.232 1119.073)" fill="none" stroke="#32969B" stroke-linecap="round" stroke-miterlimit="10" stroke-width="6.824"/>
    <g id="g46" transform="translate(1083.005 343.299)">
      <path id="path48" d="M-12.627-.641A1.972,1.972,0,0,0-14.6-2.613H-32.423A1.972,1.972,0,0,0-34.4-.641c0,.728-2.339,6.113-4.549,11.038A41.121,41.121,0,0,1-47.266,22a14.891,14.891,0,0,0-4.2,10.369V138.207H4.477V32.461a14.888,14.888,0,0,0-4.133-10.3A42.423,42.423,0,0,1-8.193,10.258C-10.36,5.367-12.627.078-12.627-.641Z" transform="translate(51.469 2.613)" fill="none" stroke="#32969B" stroke-linecap="round" stroke-miterlimit="10" stroke-width="6.824"/>
    </g>
    <path id="path50" d="M384.671-678H339.71v-18.94h44.962Z" transform="translate(748.788 1112.326)" fill="none" stroke="#32969B" stroke-linecap="round" stroke-miterlimit="10" stroke-width="6.06"/>
    <path id="path52" d="M372.265-589.188h-8.2V-671.55h8.2Z" transform="translate(742.812 1106.098)" fill="none" stroke="#32969B" stroke-linecap="round" stroke-miterlimit="10" stroke-width="6.824"/>
    <g id="g54" transform="translate(1110.979 305.213)">
      <path id="path56" d="M0-12.031V-49.043" transform="translate(0 49.043)" fill="none" stroke="#32969B" stroke-linecap="round" stroke-miterlimit="10" stroke-width="6.824"/>
    </g>
    <g id="g58" transform="translate(986.758 422.184)">
      <path id="path60" d="M-2.288,0a7.037,7.037,0,0,0-7,7.751L-4.018,59.42A20.348,20.348,0,0,0,16.222,77.669h8.832A20.347,20.347,0,0,0,45.283,59.515L50.891,7.8a7.037,7.037,0,0,0-7-7.8Z" transform="translate(9.326)" fill="none" stroke="#32969B" stroke-linecap="round" stroke-miterlimit="10" stroke-width="6.824"/>
    </g>
    <g id="g62" transform="translate(1012.894 435.441)">
      <path id="path64" d="M-7.652,0l-6.023,37.476A17.742,17.742,0,0,1-31.193,52.4h4.615" transform="translate(31.193)" fill="none" stroke="#32969B" stroke-linecap="round" stroke-miterlimit="10" stroke-width="5.693"/>
    </g>
    <g id="g66" transform="translate(1072.963 484.119)">
      <path id="path68" d="M0,0H76.03" fill="none" stroke="#32969B" stroke-linecap="round" stroke-miterlimit="10" stroke-width="6.824"/>
    </g>
    <g id="g70" transform="translate(1072.963 518.117)">
      <path id="path72" d="M0,0H76.03" fill="none" stroke="#32969B" stroke-linecap="round" stroke-miterlimit="10" stroke-width="6.824"/>
    </g>
    <g id="g74" transform="translate(1109.682 382.508)">
      <path id="path76" d="M-7.166,0H-29.209" transform="translate(29.209)" fill="none" stroke="#32969B" stroke-linecap="round" stroke-miterlimit="10" stroke-width="5.423"/>
    </g>
    <g id="g78" transform="translate(1109.682 406.045)">
      <path id="path80" d="M-7.166,0H-29.209" transform="translate(29.209)" fill="none" stroke="#32969B" stroke-linecap="round" stroke-miterlimit="10" stroke-width="5.423"/>
    </g>
    <g id="g82" transform="translate(1118.275 395.211)">
      <path id="path84" d="M-4.372,0h-13.45" transform="translate(17.823)" fill="none" stroke="#32969B" stroke-linecap="round" stroke-miterlimit="10" stroke-width="5.423"/>
    </g>
    <g id="g86" transform="translate(1192.259 362.62)">
      <path id="path88" d="M-7.156-19.414a9.442,9.442,0,0,0,4.721-1.147,9.6,9.6,0,0,0,3.4-3.306V-44.116a9.9,9.9,0,0,0-3.353-3.552,8.708,8.708,0,0,0-4.676-1.254A7.394,7.394,0,0,0-12.338-47a11.183,11.183,0,0,0-3,5.316,29.4,29.4,0,0,0-.951,7.894v.928q0,6.264,2.117,9.858t7.015,3.593M-10.994-9.4a16.309,16.309,0,0,1-9.77-2.934,18.441,18.441,0,0,1-6.242-8.2,32.369,32.369,0,0,1-2.162-12.328v-.928a36.424,36.424,0,0,1,2.186-13.188,19.927,19.927,0,0,1,6.242-8.8,15.349,15.349,0,0,1,9.7-3.154,14.5,14.5,0,0,1,6.881,1.566A15.452,15.452,0,0,1,.961-52.937V-70.051L-5.92-71.375v-7.763h19.76v59.767l6.175,1.326v7.717H2.682L1.709-16.15A15.608,15.608,0,0,1-3.65-11.122,14.925,14.925,0,0,1-10.994-9.4" transform="translate(29.168 79.138)" fill="#333333"/>
    </g>
    <g id="g90" transform="translate(1244.817 382.821)">
      <path id="path92" d="M-4.374-6.525H11.551v-1.15a14.464,14.464,0,0,0-.774-5.005,6.474,6.474,0,0,0-2.47-3.241,7.684,7.684,0,0,0-4.388-1.147A6.91,6.91,0,0,0-.4-15.722,8.866,8.866,0,0,0-3.161-12.04,19.337,19.337,0,0,0-4.5-6.747Zm9.22,29.466A23.086,23.086,0,0,1-7.109,19.918,20.732,20.732,0,0,1-15.026,11.6a25.435,25.435,0,0,1-2.8-12.087V-2.247A28.666,28.666,0,0,1-15.183-14.84,20.9,20.9,0,0,1-7.7-23.485,20.1,20.1,0,0,1,3.7-26.6a21.413,21.413,0,0,1,10.9,2.559,16.507,16.507,0,0,1,6.7,7.365A26.9,26.9,0,0,1,23.591-5.029V1.987H-4.462l-.088.266A14.38,14.38,0,0,0-2.985,7.833,9.542,9.542,0,0,0,.7,11.668a11.265,11.265,0,0,0,5.78,1.393,23.227,23.227,0,0,0,6.593-.906,25.336,25.336,0,0,0,5.976-2.67l3.487,7.94A24.76,24.76,0,0,1,15.1,21.373,30.946,30.946,0,0,1,4.846,22.941" transform="translate(17.829 26.597)" fill="#333333"/>
    </g>
    <g id="g94" transform="translate(1312.22 367.207)">
      <path id="path96" d="M0-20.877v-7.717L6.835-29.92V-76.013L0-77.337V-85.1H26.553v7.763l-6.838,1.323V-29.92l6.838,1.326v7.717Z" transform="translate(0 85.1)" fill="#333333"/>
    </g>
    <g id="g98" transform="translate(1341.973 382.822)">
      <path id="path100" d="M-.215-15.8v-7.717l6.222-1.326v-29.6L-.875-55.764v-7.763H17.959l.528,6.309a16.013,16.013,0,0,1,5.758-5.316,16.524,16.524,0,0,1,8-1.876,14.706,14.706,0,0,1,7.875,2.029,12.272,12.272,0,0,1,4.917,6.13,16.591,16.591,0,0,1,5.734-6,15.6,15.6,0,0,1,8.293-2.159q7.056,0,11.138,4.807t4.081,14.644v20.115l6.218,1.326V-15.8H55.847v-7.717l5.561-1.326V-45q0-5.292-1.746-7.345a6.254,6.254,0,0,0-5.05-2.048,7.746,7.746,0,0,0-5.071,1.7,9.538,9.538,0,0,0-3,4.479v23.376l5.205,1.326V-15.8H28.5v-7.717l5.207-1.326V-45q0-5.159-1.744-7.275a6.267,6.267,0,0,0-5.137-2.117,9.565,9.565,0,0,0-4.721,1.1,8.873,8.873,0,0,0-3.264,3.176v25.274L24.4-23.518V-15.8Z" transform="translate(0.875 64.409)" fill="#333333"/>
    </g>
    <g id="g102" transform="translate(1423.64 383.704)">
      <path id="path104" d="M-6.954-15.816q-7.544,0-11.844-4.787t-4.3-14.89V-55.384l-5.248-1.323v-7.763h18.128V-35.4q0,5.118,1.787,7.342a6.5,6.5,0,0,0,5.4,2.228,11.05,11.05,0,0,0,5.074-1.123,9.6,9.6,0,0,0,3.617-3.2v-25.23L-.031-56.707v-7.763H18.541v38.683l5.734,1.326v7.717H7.249l-.882-6.044A15.5,15.5,0,0,1,.72-17.626a16.076,16.076,0,0,1-7.675,1.81" transform="translate(28.347 64.471)" fill="#333333"/>
    </g>
    <g id="g106" transform="translate(1478.973 382.822)">
      <path id="path108" d="M-.215-15.8v-7.717l6.175-1.326v-29.6L-.875-55.764v-7.763H17.959l.575,6.838a17.375,17.375,0,0,1,5.887-5.692,15.689,15.689,0,0,1,8-2.029q7.1,0,11.116,4.545t4.013,14.245v20.775l6.174,1.326V-15.8H29.119v-7.717l5.513-1.326V-45.572q0-4.809-1.9-6.816a7.4,7.4,0,0,0-5.646-2.005,9.612,9.612,0,0,0-4.829,1.166A9.79,9.79,0,0,0,18.84-49.9v25.055l5.2,1.326V-15.8Z" transform="translate(0.875 64.409)" fill="#333333"/>
    </g>
    <g id="g132" transform="translate(1192.047 474.282)">
      <path id="path134" d="M-5.543-12.834a16.573,16.573,0,0,1-9-2.408,16.089,16.089,0,0,1-5.94-6.7A22.152,22.152,0,0,1-22.6-31.852V-33.33a22.325,22.325,0,0,1,2.04-9.7,16.2,16.2,0,0,1,5.871-6.783,16.361,16.361,0,0,1,9.142-2.5A20.043,20.043,0,0,1,2.524-50.8a16.6,16.6,0,0,1,5.819,4.149l.177,9.14H3.105l-1.2-6.643a8.772,8.772,0,0,0-2.99-1.97A11.066,11.066,0,0,0-5.3-46.866a8.565,8.565,0,0,0-5.431,1.829,12.024,12.024,0,0,0-3.641,4.885,17.305,17.305,0,0,0-1.3,6.822v1.477a19.544,19.544,0,0,0,1.213,7.208,10.519,10.519,0,0,0,3.48,4.727,8.855,8.855,0,0,0,5.4,1.669A8.8,8.8,0,0,0,.257-20.182a8.291,8.291,0,0,0,2.849-5.309H9.326l.072.212a12.782,12.782,0,0,1-1.934,6.116,12.882,12.882,0,0,1-5.009,4.588,16.8,16.8,0,0,1-8,1.741" transform="translate(22.596 52.313)" fill="#333333"/>
    </g>
    <g id="g136" transform="translate(1228.997 474.282)">
      <path id="path138" d="M-5.543-11.074A8.524,8.524,0,0,0,0-12.884,11.085,11.085,0,0,0,3.367-17.84,20.8,20.8,0,0,0,4.51-25v-.774a20.8,20.8,0,0,0-1.143-7.152A11.031,11.031,0,0,0-.025-37.883a8.636,8.636,0,0,0-5.591-1.809,8.587,8.587,0,0,0-5.554,1.809,10.933,10.933,0,0,0-3.375,4.961,21.231,21.231,0,0,0-1.124,7.152V-25a21.232,21.232,0,0,0,1.124,7.155,10.835,10.835,0,0,0,3.4,4.957,8.7,8.7,0,0,0,5.607,1.81m0,5.415a16.31,16.31,0,0,1-9.09-2.48,16.273,16.273,0,0,1-5.887-6.854A23.1,23.1,0,0,1-22.6-25v-.774a23.116,23.116,0,0,1,2.075-10,16.4,16.4,0,0,1,5.887-6.871,16.09,16.09,0,0,1,9.018-2.5,16.218,16.218,0,0,1,9.09,2.5,16.4,16.4,0,0,1,5.887,6.854A23.052,23.052,0,0,1,11.437-25.77V-25A23.181,23.181,0,0,1,9.362-14.958,16.2,16.2,0,0,1,3.491-8.119a16.247,16.247,0,0,1-9.034,2.46" transform="translate(22.596 45.139)" fill="#333333"/>
    </g>
    <g id="g140" transform="translate(1266.935 474.281)">
      <path id="path142" d="M0-12.594v-4.43l5.732-.984V-45.183L0-46.17v-4.464H11.92l.49,5.659a13.824,13.824,0,0,1,4.764-4.691,12.709,12.709,0,0,1,6.521-1.67q6.155,0,9.528,3.6T36.6-36.606v18.6l5.731.984v4.43H23.943v-4.43l5.731-.984V-36.466q0-5.029-1.986-7.135t-6.064-2.111a9.769,9.769,0,0,0-5.294,1.441,10.543,10.543,0,0,0-3.672,3.937v22.325l5.731.984v4.43Z" transform="translate(0 51.336)" fill="#333333"/>
    </g>
    <g id="g144" transform="translate(1309.547 465.806)">
      <path id="path146" d="M-4.938-15.543a9.039,9.039,0,0,1-6.7-2.48q-2.48-2.474-2.48-7.926v-23.1h-6.012V-54.18h6.012v-9.179h6.927v9.179h8.26v5.133h-8.26v23.1A6.222,6.222,0,0,0-6.1-21.908a3.614,3.614,0,0,0,2.921,1.3,18.656,18.656,0,0,0,2.741-.225c1.007-.153,1.794-.288,2.356-.4L2.864-16.7A28.589,28.589,0,0,1-.843-15.9a25.887,25.887,0,0,1-4.094.353" transform="translate(20.128 63.359)" fill="#333333"/>
    </g>
    <g id="g148" transform="translate(1335.461 474.281)">
      <path id="path150" d="M0-12.594v-4.43l5.73-.984V-45.183L0-46.17v-4.464H11.916l.6,4.853.071.666a13.327,13.327,0,0,1,3.99-4.57,9.262,9.262,0,0,1,5.43-1.651,13.275,13.275,0,0,1,2.235.193,10.467,10.467,0,0,1,1.634.369l-.915,6.433-4.816-.281a6.62,6.62,0,0,0-4.6,1.249,9.207,9.207,0,0,0-2.885,3.813v21.552l5.73.984v4.43Z" transform="translate(0 51.336)" fill="#333333"/>
    </g>
    <g id="g152" transform="translate(1364.29 474.281)">
      <path id="path154" d="M-4.274-10.949A12.323,12.323,0,0,0,2.019-12.6,10.259,10.259,0,0,0,6.1-16.575v-6.89H-.935q-4.779,0-7.171,2.283a6.939,6.939,0,0,0-2.389,5.1A4.729,4.729,0,0,0-8.95-12.269a7.069,7.069,0,0,0,4.676,1.32m-1.019,5.8q-5.941,0-9.035-2.9t-3.093-8.172a10.348,10.348,0,0,1,1.986-6.313,12.789,12.789,0,0,1,5.748-4.182,24.367,24.367,0,0,1,9-1.5H6.1v-3.725a6.858,6.858,0,0,0-2.091-5.346,8.455,8.455,0,0,0-5.888-1.9,13.321,13.321,0,0,0-4.15.583,12.006,12.006,0,0,0-3.2,1.6l-.739,5.31h-5.342V-40.41a17.979,17.979,0,0,1,5.976-3.146,25.1,25.1,0,0,1,7.557-1.073q6.926,0,10.864,3.3t3.937,9.456v18.316q0,.74.02,1.441c.01.471.039.938.085,1.409l3.692.385v4.43H6.871c-.209-1.032-.376-1.957-.49-2.777s-.2-1.64-.249-2.46A16.812,16.812,0,0,1,1.124-6.855,12.783,12.783,0,0,1-5.293-5.149" transform="translate(17.421 44.629)" fill="#333333"/>
    </g>
    <g id="g156" transform="translate(1419.103 474.281)">
      <path id="path158" d="M-4.274-10.949A12.323,12.323,0,0,0,2.019-12.6,10.259,10.259,0,0,0,6.1-16.575v-6.89H-.935q-4.779,0-7.171,2.283a6.935,6.935,0,0,0-2.389,5.1,4.726,4.726,0,0,0,1.547,3.814,7.067,7.067,0,0,0,4.675,1.32m-1.019,5.8q-5.939,0-9.034-2.9t-3.094-8.172a10.348,10.348,0,0,1,1.986-6.313,12.791,12.791,0,0,1,5.747-4.182,24.376,24.376,0,0,1,9-1.5H6.1v-3.725a6.858,6.858,0,0,0-2.091-5.346,8.455,8.455,0,0,0-5.888-1.9,13.321,13.321,0,0,0-4.15.583,11.991,11.991,0,0,0-3.2,1.6l-.739,5.31h-5.342V-40.41a17.979,17.979,0,0,1,5.976-3.146,25.1,25.1,0,0,1,7.557-1.073q6.926,0,10.864,3.3t3.937,9.456v18.316q0,.74.02,1.441c.01.471.039.938.085,1.409l3.693.385v4.43H6.871c-.209-1.032-.376-1.957-.49-2.777s-.2-1.64-.249-2.46A16.812,16.812,0,0,1,1.124-6.855,12.783,12.783,0,0,1-5.293-5.149" transform="translate(17.421 44.629)" fill="#333333"/>
    </g>
    <g id="g160" transform="translate(1471.975 461.098)">
      <path id="path162" d="M-8.228-17.119a28.041,28.041,0,0,1-13.043-2.954,21.767,21.767,0,0,1-9-8.559A26.622,26.622,0,0,1-33.54-42.255v-2.356a27.472,27.472,0,0,1,3.006-13.063,21.91,21.91,0,0,1,8.576-8.894A26.055,26.055,0,0,1-8.721-69.782,35.929,35.929,0,0,1,1.457-68.362a25.107,25.107,0,0,1,8.982,4.872V-50.3H1.473L.244-57.867a17.1,17.1,0,0,0-2.513-1.4,13.706,13.706,0,0,0-2.813-.915A15.362,15.362,0,0,0-8.3-60.5a12.4,12.4,0,0,0-6.819,1.862,12.15,12.15,0,0,0-4.519,5.4,20.7,20.7,0,0,0-1.6,8.56v2.428a19.523,19.523,0,0,0,1.65,8.279,13.264,13.264,0,0,0,4.624,5.571,12,12,0,0,0,6.875,2,20.925,20.925,0,0,0,4.218-.438,28.67,28.67,0,0,0,4.15-1.179L1.509-35.26h9v12.9A30.708,30.708,0,0,1,2.7-18.685,34.922,34.922,0,0,1-8.228-17.119" transform="translate(33.54 69.782)" fill="#32969B"/>
    </g>
    <g id="g190" transform="translate(1197.08 292.861)">
      <path id="path192" d="M-2.809-7.446H7.3q5.5,0,8.247-2.827a9.686,9.686,0,0,0,2.748-7.04,9.842,9.842,0,0,0-2.733-7.13Q12.829-27.268,7.3-27.267H-2.809Zm-8.643,21.562V11.459l4.978-.4V-27.267l-4.978-.4v-2.688H7.3a17.848,17.848,0,0,1,7.973,1.618A11.542,11.542,0,0,1,20.25-24.2a13.248,13.248,0,0,1,1.71,6.825,13.312,13.312,0,0,1-1.71,6.857A11.466,11.466,0,0,1,15.273-6,17.991,17.991,0,0,1,7.3-4.392H-2.809V11.063l4.98.4v2.656Z" transform="translate(11.452 30.352)" fill="#333333"/>
    </g>
    <g id="g194" transform="translate(1236.142 303.672)">
      <path id="path196" d="M0-10.941V-13.6l4.98-.4V-40.9L0-41.3v-2.688H8.185l.4,5.04.031.885a11.7,11.7,0,0,1,3.818-4.81A9.667,9.667,0,0,1,18.2-44.6a12.066,12.066,0,0,1,1.756.139,7.847,7.847,0,0,1,1.359.29l-.458,3.36-3.39-.213a7.7,7.7,0,0,0-5.742,2.015,11.121,11.121,0,0,0-3.085,5.589v19.424l4.979.4v2.656Z" transform="translate(0 44.599)" fill="#333333"/>
    </g>
    <g id="g198" transform="translate(1261.43 303.672)">
      <path id="path200" d="M-4.765-10.156a9.544,9.544,0,0,0,5.833-1.8,11.516,11.516,0,0,0,3.756-4.885,17.464,17.464,0,0,0,1.313-6.9v-1.008a17.374,17.374,0,0,0-1.313-6.871,11.468,11.468,0,0,0-3.77-4.887,9.669,9.669,0,0,0-5.88-1.8,9.66,9.66,0,0,0-5.878,1.8,11.348,11.348,0,0,0-3.756,4.887,17.533,17.533,0,0,0-1.3,6.871v1.008a17.582,17.582,0,0,0,1.3,6.917A11.364,11.364,0,0,0-10.7-11.959a9.763,9.763,0,0,0,5.94,1.8m0,3.055a13.938,13.938,0,0,1-7.742-2.123,14.142,14.142,0,0,1-5.1-5.895,19.651,19.651,0,0,1-1.816-8.627v-1.008a19.549,19.549,0,0,1,1.816-8.612,14.279,14.279,0,0,1,5.1-5.895A13.76,13.76,0,0,1-4.827-41.4a13.818,13.818,0,0,1,7.712,2.138,14.3,14.3,0,0,1,5.1,5.879A19.517,19.517,0,0,1,9.8-24.755v1.008A19.619,19.619,0,0,1,7.986-15.1a14.165,14.165,0,0,1-5.1,5.878A13.774,13.774,0,0,1-4.765-7.1" transform="translate(19.424 41.4)" fill="#333333"/>
    </g>
    <g id="g202" transform="translate(1296.766 303.672)">
      <path id="path204" d="M-8.409-1.221-9.6-4.368h6.17v2.658ZM-20.9,26.174a10.2,10.2,0,0,0,5.971-1.649,10.265,10.265,0,0,0,3.589-4.52V4.887A12.037,12.037,0,0,0-14.76.077a9.121,9.121,0,0,0-6.078-1.909A8.09,8.09,0,0,0-26.214-.016a11.05,11.05,0,0,0-3.267,5.025,22.852,22.852,0,0,0-1.1,7.421v.642q0,5.986,2.427,9.543A8.2,8.2,0,0,0-20.9,26.174m.183,15.851a24.173,24.173,0,0,1-5.1-.582,20.942,20.942,0,0,1-4.7-1.557l.979-3.055A20.085,20.085,0,0,0-25.4,38.3a19.947,19.947,0,0,0,4.627.519q4.7,0,7.07-2.8t2.368-7.773V24.22a11.471,11.471,0,0,1-4.231,3.756,12.828,12.828,0,0,1-6,1.344A11.468,11.468,0,0,1-28.383,27.3a12.8,12.8,0,0,1-4.366-5.665,22.044,22.044,0,0,1-1.528-8.567V12.43a25.158,25.158,0,0,1,1.528-9.193,13.523,13.523,0,0,1,4.381-6.063,11.067,11.067,0,0,1,6.856-2.153,11.889,11.889,0,0,1,6.139,1.527A11.823,11.823,0,0,1-11.157.824l.4-5.192h3.084V28.25a16.235,16.235,0,0,1-1.543,7.33,11.067,11.067,0,0,1-4.475,4.765,13.9,13.9,0,0,1-7.025,1.68" transform="translate(34.277 4.979)" fill="#333333"/>
    </g>
    <g id="g206" transform="translate(1331.734 303.672)">
      <path id="path208" d="M0-10.941V-13.6l4.98-.4V-40.9L0-41.3v-2.688H8.185l.4,5.04.031.885a11.713,11.713,0,0,1,3.818-4.81A9.667,9.667,0,0,1,18.2-44.6a12.066,12.066,0,0,1,1.756.139,7.847,7.847,0,0,1,1.359.29l-.458,3.36-3.389-.213a7.7,7.7,0,0,0-5.743,2.015,11.121,11.121,0,0,0-3.085,5.589v19.424l4.979.4v2.656Z" transform="translate(0 44.599)" fill="#333333"/>
    </g>
    <g id="g210" transform="translate(1357.634 303.672)">
      <path id="path212" d="M-3.4-10.107a12.491,12.491,0,0,0,6.43-1.787,11.012,11.012,0,0,0,4.473-4.749v-6.963H.637q-5.071,0-7.94,2.184a6.528,6.528,0,0,0-2.872,5.36,5.521,5.521,0,0,0,1.832,4.306A7.121,7.121,0,0,0-3.4-10.107M-3.822-6.9a10.31,10.31,0,0,1-7.362-2.5,8.873,8.873,0,0,1-2.656-6.781,8.559,8.559,0,0,1,1.771-5.36,11.456,11.456,0,0,1,5.024-3.588A20.99,20.99,0,0,1,.668-26.416H7.507V-30.2A7.909,7.909,0,0,0,5.385-35.96q-2.122-2.183-6.4-2.184a11.356,11.356,0,0,0-4.323.779A12.166,12.166,0,0,0-8.648-35.4l-.3,5.04h-3.025v-6.9A16.653,16.653,0,0,1-7.12-40.146,16.994,16.994,0,0,1-.951-41.2q5.831,0,8.979,2.932a10.561,10.561,0,0,1,3.146,8.124V-14.2c0,.652.02,1.3.06,1.939s.113,1.278.213,1.908l3.94.154v2.656H8.18q-.367-1.8-.505-2.9t-.168-2.473A13.984,13.984,0,0,1,2.744-8.58,13.078,13.078,0,0,1-3.822-6.9" transform="translate(13.84 41.199)" fill="#333333"/>
    </g>
    <g id="g214" transform="translate(1391.626 303.642)">
      <path id="path216" d="M0-10.951v-2.656L4.978-14V-40.911L0-41.31V-44H8.246l.3,5.651a11.457,11.457,0,0,1,4.2-4.612,11.878,11.878,0,0,1,6.367-1.65,10.38,10.38,0,0,1,6.351,1.879,10.4,10.4,0,0,1,3.636,5.758,12.363,12.363,0,0,1,4.2-5.62,11.124,11.124,0,0,1,6.763-2.046,9.962,9.962,0,0,1,8.17,3.527q2.887,3.526,2.888,10.888v16.187l4.977.4v2.656H42.452v-2.656l4.979-.4V-30.283q0-6.139-2.153-8.674a7.416,7.416,0,0,0-5.971-2.536,8.219,8.219,0,0,0-6.628,2.733A12.512,12.512,0,0,0,29.9-31.841V-14l4.978.4v2.656H21.226v-2.656L26.2-14V-30.283q0-6.016-2.185-8.6a7.442,7.442,0,0,0-6-2.581,8.734,8.734,0,0,0-6.277,2.138,11.1,11.1,0,0,0-3.07,5.681V-14l4.978.4v2.656Z" transform="translate(0 44.637)" fill="#333333"/>
    </g>
    <g id="g218" transform="translate(1452.372 303.672)">
      <path id="path220" d="M-3.4-10.107a12.492,12.492,0,0,0,6.431-1.787,11.06,11.06,0,0,0,4.476-4.749v-6.963H.637q-5.068,0-7.94,2.184a6.531,6.531,0,0,0-2.872,5.36,5.518,5.518,0,0,0,1.833,4.306A7.115,7.115,0,0,0-3.4-10.107M-3.82-6.9a10.309,10.309,0,0,1-7.363-2.5,8.87,8.87,0,0,1-2.657-6.781,8.553,8.553,0,0,1,1.771-5.36,11.462,11.462,0,0,1,5.024-3.588A20.981,20.981,0,0,1,.669-26.416H7.511V-30.2A7.926,7.926,0,0,0,5.388-35.96q-2.13-2.183-6.4-2.184a11.368,11.368,0,0,0-4.326.779A12.289,12.289,0,0,0-8.65-35.4l-.3,5.04h-3.024v-6.9A16.635,16.635,0,0,1-7.12-40.146,16.986,16.986,0,0,1-.951-41.2q5.832,0,8.979,2.932a10.556,10.556,0,0,1,3.143,8.124V-14.2c0,.652.026,1.3.064,1.939a18.289,18.289,0,0,0,.216,1.908l3.933.154v2.656H8.177c-.241-1.2-.412-2.167-.5-2.9a24.248,24.248,0,0,1-.163-2.473A14.024,14.024,0,0,1,2.747-8.58,13.1,13.1,0,0,1-3.82-6.9" transform="translate(13.84 41.199)" fill="#333333"/>
    </g>
    <g id="g222" transform="translate(1501.604 292.862)">
      <path id="path224" d="M0-14.455v-2.656l4.979-.4V-55.837L0-56.235v-2.688H9.925L26.357-20.806h.183L42.759-58.923H52.928v2.688l-4.977.4v38.328l4.977.4v2.656H39.309v-2.656l5.1-.4V-53.578l-.155-.031L27.762-15.189H25.2L8.521-53.488l-.183.062L8.461-36.9v19.4l5.16.4v2.656Z" transform="translate(0 58.923)" fill="#333333"/>
    </g>
    <g id="g164" transform="translate(1518.593 461.098)">
      <path id="path166" d="M-7.9-14.08a10.631,10.631,0,0,0,6.609-2.076,12.889,12.889,0,0,0,4.187-5.8,24.138,24.138,0,0,0,1.44-8.72v-.879a23.376,23.376,0,0,0-1.46-8.6,13.033,13.033,0,0,0-4.2-5.783,10.69,10.69,0,0,0-6.642-2.076A10.633,10.633,0,0,0-14.7-45.965a11.936,11.936,0,0,0-3.885,5.726,26.863,26.863,0,0,0-1.264,8.685v.879a26.955,26.955,0,0,0,1.283,8.736,12,12,0,0,0,3.938,5.8A10.649,10.649,0,0,0-7.9-14.08m0,9.351A24.037,24.037,0,0,1-17.654-6.68a23.09,23.09,0,0,1-7.715-5.466,24.762,24.762,0,0,1-5.048-8.246,29.042,29.042,0,0,1-1.774-10.283v-.807a28.806,28.806,0,0,1,1.774-10.23,24.95,24.95,0,0,1,5.029-8.228,23.142,23.142,0,0,1,7.682-5.485,23.683,23.683,0,0,1,9.74-1.967A23.676,23.676,0,0,1,1.7-55.425,24.2,24.2,0,0,1,9.524-49.94a25.2,25.2,0,0,1,5.221,8.228,27.576,27.576,0,0,1,1.863,10.23v.807a27.8,27.8,0,0,1-1.863,10.283A25.342,25.342,0,0,1,9.54-12.146,23.793,23.793,0,0,1,1.735-6.68,23.792,23.792,0,0,1-7.9-4.729" transform="translate(32.191 57.392)" fill="#32969B"/>
    </g>
    <path id="path110" d="M938.868-766.859h13.317v10.985H938.868Zm-5.781,68.81v-7.717l6.219-1.326v-29.6l-6.882-1.323v-7.763h19.761v38.683l6.175,1.326v7.717Z" transform="translate(603.381 1129.479)" fill="#333333"/>
    <g id="g112" transform="translate(1566.222 383.705)">
      <path id="path114" d="M0-15.514V-23.1L24.832-54.242H11.952L10.5-46.084H1.059V-63.24H40.273v8.25L16.849-24.734h13.5l1.9-8.776h9.043v18Z" transform="translate(0 63.24)" fill="#333333"/>
    </g>
    <g id="g116" transform="translate(1613.531 382.822)">
      <path id="path118" d="M-6.151-13.006a11.266,11.266,0,0,0,5.117-1.216,9.489,9.489,0,0,0,3.751-3.2v-7.544H-3.635q-4.235,0-6.417,1.941a6.032,6.032,0,0,0-2.183,4.675A4.928,4.928,0,0,0-10.626-14.4a6.622,6.622,0,0,0,4.476,1.393M-9.588-3.478q-7.106,0-11.292-3.817t-4.192-10.39a13.156,13.156,0,0,1,2.447-7.894,16.1,16.1,0,0,1,7.234-5.339,31.584,31.584,0,0,1,11.8-1.94H2.717v-3.529A7.823,7.823,0,0,0,.71-41.964Q-1.3-44.106-5.312-44.1a12.775,12.775,0,0,0-3.727.506,10.629,10.629,0,0,0-2.977,1.434l-1.016,6.306h-9.259l-.176-12.393a39.923,39.923,0,0,1,8.116-3.44,33.506,33.506,0,0,1,9.746-1.323q9.35,0,14.779,4.346T15.6-36.254v19.673q0,.972.024,1.919a14.1,14.1,0,0,0,.153,1.832l4.986.706v7.717H4.788Q4.3-5.64,3.821-7.053a15.9,15.9,0,0,1-.705-2.823,18.138,18.138,0,0,1-5.4,4.653,14.675,14.675,0,0,1-7.3,1.746" transform="translate(25.072 53.015)" fill="#333333"/>
    </g>
    <g id="g120" transform="translate(1663.22 382.822)">
      <path id="path122" d="M-5.291-22.382-5.6-29.44A8.762,8.762,0,0,0-1.386-30.3,2.811,2.811,0,0,0,.178-32.922a2.648,2.648,0,0,0-1.543-2.623,13.907,13.907,0,0,0-4.9-.9l1.5-6.97H4.72l-.572,3.264a9.672,9.672,0,0,1,4.941,2.229,6.523,6.523,0,0,1,1.983,5.181A8.649,8.649,0,0,1,6.8-25.2Q2.516-22.382-5.291-22.382m6-19.316A22.159,22.159,0,0,1-11.179-44.79a20.371,20.371,0,0,1-7.7-8.534,27.76,27.76,0,0,1-2.693-12.462V-67.1A27.339,27.339,0,0,1-18.831-79.59a20.918,20.918,0,0,1,7.718-8.534A21.694,21.694,0,0,1,.619-91.234a27.936,27.936,0,0,1,11.093,2.005,27.169,27.169,0,0,1,7.568,4.657L19.188-70.9h-9.7L7.765-79.413a8.051,8.051,0,0,0-2.693-1.722,8.789,8.789,0,0,0-3.306-.66,9.372,9.372,0,0,0-5.845,1.764A10.456,10.456,0,0,0-7.538-75a23.825,23.825,0,0,0-1.151,7.9v1.319a21.616,21.616,0,0,0,1.281,8.051A10.106,10.106,0,0,0-3.99-53.082,8.128,8.128,0,0,0,.8-51.579a8,8,0,0,0,5.447-1.787,9.43,9.43,0,0,0,2.846-5.052H20.07l.135.266a23.577,23.577,0,0,1-2.976,8.776,14.715,14.715,0,0,1-6.265,5.691A23.2,23.2,0,0,1,.708-41.7" transform="translate(21.569 91.234)" fill="#333333"/>
    </g>
    <g id="g124" transform="translate(1710.352 361.473)">
      <path id="path126" d="M-6.151-19.946a11.263,11.263,0,0,0,5.117-1.216,9.482,9.482,0,0,0,3.751-3.2V-31.9H-3.635q-4.234,0-6.417,1.941a6.032,6.032,0,0,0-2.183,4.675,4.928,4.928,0,0,0,1.608,3.946,6.622,6.622,0,0,0,4.476,1.393m-7.94-47.991L-20.749-69.7a11.133,11.133,0,0,1,1.389-5.47,11.515,11.515,0,0,1,3.682-4.058,8.764,8.764,0,0,1,4.986-1.546,10.514,10.514,0,0,1,4.411,1.059q2.294,1.06,4.388,2.14A8.138,8.138,0,0,0,1.659-76.5a3.616,3.616,0,0,0,2.888-1.39A5.266,5.266,0,0,0,5.628-81.3l6.662,1.852A11.143,11.143,0,0,1,10.9-73.916a10.954,10.954,0,0,1-3.682,3.97,9.083,9.083,0,0,1-5.028,1.48A10.857,10.857,0,0,1-2.4-69.525q-2.294-1.058-4.281-2.14a7.494,7.494,0,0,0-3.483-1.082,3.4,3.4,0,0,0-2.869,1.412,5.494,5.494,0,0,0-1.06,3.4m4.5,57.519q-7.106,0-11.292-3.817t-4.192-10.39a13.156,13.156,0,0,1,2.447-7.894,16.109,16.109,0,0,1,7.234-5.339,31.584,31.584,0,0,1,11.8-1.94H2.717v-3.529A7.822,7.822,0,0,0,.711-48.9q-2.01-2.142-6.021-2.14a12.782,12.782,0,0,0-3.728.506A10.609,10.609,0,0,0-12.015-49.1L-13.031-42.8h-9.26l-.176-12.393a39.923,39.923,0,0,1,8.116-3.44,33.511,33.511,0,0,1,9.746-1.323q9.35,0,14.779,4.346T15.6-43.194v19.673c0,.648.006,1.288.023,1.919a14.1,14.1,0,0,0,.153,1.832l4.986.706v7.717H4.788Q4.3-12.58,3.821-13.993a15.987,15.987,0,0,1-.705-2.823,18.126,18.126,0,0,1-5.4,4.653,14.675,14.675,0,0,1-7.3,1.746" transform="translate(25.072 81.304)" fill="#333333"/>
    </g>
    <g id="g128" transform="translate(1760.042 382.822)">
      <path id="path130" d="M-7.341-12.891a8.13,8.13,0,0,0,5.47-1.81,10.618,10.618,0,0,0,3.133-5.051,25.392,25.392,0,0,0,1.016-7.564v-.925A25.077,25.077,0,0,0,1.262-35.72a10.686,10.686,0,0,0-3.154-5.072,8.218,8.218,0,0,0-5.535-1.832,8.156,8.156,0,0,0-5.47,1.832,10.457,10.457,0,0,0-3.156,5.072,25.646,25.646,0,0,0-.993,7.478v.925a26.2,26.2,0,0,0,.993,7.586A10.2,10.2,0,0,0-12.9-14.678a8.438,8.438,0,0,0,5.555,1.787m0,9.88A22.857,22.857,0,0,1-19.47-6.1a20.221,20.221,0,0,1-7.763-8.576,28.392,28.392,0,0,1-2.692-12.638v-.925a28.3,28.3,0,0,1,2.692-12.6,20.417,20.417,0,0,1,7.741-8.6A22.547,22.547,0,0,1-7.427-52.548,22.606,22.606,0,0,1,4.7-49.437a20.494,20.494,0,0,1,7.718,8.577,28.264,28.264,0,0,1,2.692,12.618v.925A28.392,28.392,0,0,1,12.42-14.678,20.307,20.307,0,0,1,4.7-6.1,22.539,22.539,0,0,1-7.341-3.011" transform="translate(29.925 52.548)" fill="#333333"/>
    </g>
    <g id="g168" transform="translate(1568.515 461.836)">
      <path id="path170" d="M-6.789-16.639-22.823-60.023l-4.852-.562v-7.241h22.96v7.241l-4.57.7L-.111-31.124l.493,2H.592l.458-1.9,8.9-28.864-5.486-.7v-7.241H25.907v7.241l-4.993.562L6.571-16.639Z" transform="translate(27.675 67.826)" fill="#32969B"/>
    </g>
    <g id="g172" transform="translate(1622.515 461.836)">
      <path id="path174" d="M0-16.639v-7.208l5.31-1.124V-59.463L0-60.586v-7.241H22.924v7.241l-5.309,1.123v34.492l5.309,1.124v7.208Z" transform="translate(0 67.826)" fill="#32969B"/>
    </g>
    <g id="g176" transform="translate(1646.808 461.836)">
      <path id="path178" d="M-5.76-13.6H-.133A10.611,10.611,0,0,0,6.4-15.57,12.026,12.026,0,0,0,10.4-21.1,23.413,23.413,0,0,0,11.75-29.42v-.842a23.273,23.273,0,0,0-1.352-8.3A12.066,12.066,0,0,0,6.4-44.08,10.611,10.611,0,0,0-.133-46.05H-5.76ZM-23.479-4.247v-7.208l5.381-1.3v-34.1l-5.381-1.336v-7.241H.5A23.332,23.332,0,0,1,12.769-52.22a22.51,22.51,0,0,1,8.368,8.894,27.456,27.456,0,0,1,3.022,13.1v.809a27.434,27.434,0,0,1-3.022,13.1,22.371,22.371,0,0,1-8.368,8.877A23.408,23.408,0,0,1,.5-4.247Z" transform="translate(23.479 55.435)" fill="#32969B"/>
    </g>
    <path id="path180" d="M1149.674-603.061h21.444v9.455h-21.444Z" transform="translate(550.085 1089.296)" fill="#32969B"/>
    <g id="g182" transform="translate(1724.228 461.836)">
      <path id="path184" d="M-.023-16.639v-7.208l9.106-1.124V-57.315l-9.178-.108v-6.819l21.482-3.584v42.855l9.1,1.124v7.208Z" transform="translate(0.095 67.826)" fill="#32969B"/>
    </g>
    <g id="g186" transform="translate(1756.716 461.098)">
      <path id="path188" d="M-5.885-8.834a8.214,8.214,0,0,0,2.9-.545A7.474,7.474,0,0,0-.434-10.945V-16.5q0-4.922-1.582-7.505A4.616,4.616,0,0,0-5.99-26.589,4.155,4.155,0,0,0-9.011-25.34a8.135,8.135,0,0,0-1.951,3.286,13.606,13.606,0,0,0-.686,4.362,16.588,16.588,0,0,0,.6,4.709A6.268,6.268,0,0,0-9.188-9.9a4.932,4.932,0,0,0,3.3,1.071M-8.344,16.655a28.876,28.876,0,0,1-5.538-.562,27.233,27.233,0,0,1-5.358-1.617l1.228-8.788A39.775,39.775,0,0,0-13.354,6.83a24.461,24.461,0,0,0,4.307.438,8.384,8.384,0,0,0,6.522-2.6q2.371-2.6,2.372-7.805V-4.3a12.873,12.873,0,0,1-4.27,3.2A12.143,12.143,0,0,1-9.469-.044,13.5,13.5,0,0,1-17.01-2.187a14.261,14.261,0,0,1-5.133-6.1,22.047,22.047,0,0,1-1.846-9.4,18.851,18.851,0,0,1,2.283-9.246,17.412,17.412,0,0,1,6.366-6.61,17.812,17.812,0,0,1,9.387-2.46A16.833,16.833,0,0,1,3.24-33.46,17.376,17.376,0,0,1,9.567-26.2a25.284,25.284,0,0,1,2.3,11.213V-2.717A19.263,19.263,0,0,1,9.233,7.425a18.24,18.24,0,0,1-7.188,6.806A21.8,21.8,0,0,1-8.344,16.655" transform="translate(23.989 36.008)" fill="#32969B"/>
    </g>
    <g id="g226" transform="translate(1558.504 304.283)">
      <path id="path228" d="M-4.894-10.951a9.828,9.828,0,0,1-8.076-3.543q-2.887-3.544-2.889-11V-41.553l-4.091-.4v-2.687h7.757v19.21q0,6.048,1.983,8.69A6.747,6.747,0,0,0-4.466-14.1a10.1,10.1,0,0,0,6.626-1.97,10,10,0,0,0,3.267-5.3V-41.553l-4.7-.4v-2.687h8.4v29.993l4.429.4v2.656H5.888L5.581-17.03a11.435,11.435,0,0,1-4.169,4.489,11.908,11.908,0,0,1-6.306,1.59" transform="translate(19.951 44.639)" fill="#333333"/>
    </g>
    <g id="g230" transform="translate(1596.86 303.672)">
      <path id="path232" d="M0-10.941V-13.6l4.979-.4V-40.9L0-41.3v-2.688H8.218l.3,5.926A12.062,12.062,0,0,1,12.8-42.888,11.71,11.71,0,0,1,19.212-44.6q5.376,0,8.186,3.283t2.809,10.278v17.043l4.98.4v2.656H21.565V-13.6l4.976-.4V-31.006q0-5.742-2.107-8.093a7.654,7.654,0,0,0-6.015-2.353,8.953,8.953,0,0,0-6.476,2.291,12.133,12.133,0,0,0-3.3,5.985v19.181l4.976.4v2.656Z" transform="translate(0 44.599)" fill="#333333"/>
    </g>
    <path id="path234" d="M1071.619-863.5h4.093v5.283h-4.093Zm-4.551,47.644v-2.656l4.979-.4V-845.82l-4.979-.4v-2.688h8.646v29.994l4.976.4v2.656Z" transform="translate(570.35 1153.188)" fill="#333333"/>
    <g id="g236" transform="translate(1657.025 303.672)">
      <path id="path238" d="M-4.556-11.149a12.95,12.95,0,0,1-7.282-2.078,13.967,13.967,0,0,1-4.948-5.8,19.745,19.745,0,0,1-1.787-8.642v-1.283a20.16,20.16,0,0,1,1.725-8.552,13.839,13.839,0,0,1,4.872-5.834,12.969,12.969,0,0,1,7.391-2.107A15.537,15.537,0,0,1,2.257-44a15.727,15.727,0,0,1,5.008,3.743l.059,7.482H4.271l-.489-6.171A10.921,10.921,0,0,0,.21-41.462a11.6,11.6,0,0,0-4.7-.9,8.946,8.946,0,0,0-5.467,1.74,11.326,11.326,0,0,0-3.65,4.781,17.377,17.377,0,0,0-1.3,6.888v1.283a18.067,18.067,0,0,0,1.281,7.07,10.892,10.892,0,0,0,3.6,4.718,9.142,9.142,0,0,0,5.5,1.679,9.689,9.689,0,0,0,6.169-1.939A8.368,8.368,0,0,0,4.639-21.87H7.906l.061.183a11.649,11.649,0,0,1-1.849,5.5,10.626,10.626,0,0,1-4.273,3.711,14.365,14.365,0,0,1-6.4,1.329" transform="translate(18.573 45.448)" fill="#333333"/>
    </g>
    <path id="path240" d="M1140.575-863.5h4.093v5.283h-4.093Zm-4.551,47.644v-2.656l4.979-.4V-845.82l-4.979-.4v-2.688h8.645v29.994l4.977.4v2.656Z" transform="translate(553.434 1153.188)" fill="#333333"/>
    <g id="g242" transform="translate(1707.813 303.672)">
      <path id="path244" d="M-5.9-10.156a8.286,8.286,0,0,0,7.282-3.6q2.492-3.6,2.49-9.589v-.642a22.259,22.259,0,0,0-1.13-7.42A11.176,11.176,0,0,0-.568-36.437a8.144,8.144,0,0,0-5.391-1.816,9.331,9.331,0,0,0-6.031,1.832,11.215,11.215,0,0,0-3.4,4.642v15.76a9.463,9.463,0,0,0,3.541,4.291A10.593,10.593,0,0,0-5.9-10.156M-23.917,4.961V2.275l4.855-.4V-37.7l-4.976-.4v-2.688h8.031l.458,5.039a11.771,11.771,0,0,1,4.261-4.169A12.272,12.272,0,0,1-5.132-41.4a11.026,11.026,0,0,1,6.825,2.152,13.477,13.477,0,0,1,4.369,6.063,25.481,25.481,0,0,1,1.509,9.193v.642a22.285,22.285,0,0,1-1.509,8.582,12.764,12.764,0,0,1-4.34,5.651A11.341,11.341,0,0,1-5.041-7.1a13.464,13.464,0,0,1-6.123-1.313,11.083,11.083,0,0,1-4.231-3.666V1.877l5.1.4V4.961Z" transform="translate(24.037 41.4)" fill="#333333"/>
    </g>
    <g id="g246" transform="translate(1745.041 303.672)">
      <path id="path248" d="M-3.4-10.107a12.483,12.483,0,0,0,6.427-1.787,11.033,11.033,0,0,0,4.477-4.749v-6.963H.636q-5.073,0-7.943,2.184a6.524,6.524,0,0,0-2.868,5.36,5.525,5.525,0,0,0,1.829,4.306,7.122,7.122,0,0,0,4.95,1.65M-3.824-6.9a10.3,10.3,0,0,1-7.361-2.5,8.873,8.873,0,0,1-2.656-6.781,8.565,8.565,0,0,1,1.771-5.36,11.442,11.442,0,0,1,5.025-3.588A20.964,20.964,0,0,1,.666-26.416H7.508V-30.2A7.91,7.91,0,0,0,5.384-35.96q-2.122-2.183-6.4-2.184a11.363,11.363,0,0,0-4.323.779A12.258,12.258,0,0,0-8.65-35.4l-.3,5.04h-3.026v-6.9a16.656,16.656,0,0,1,4.855-2.888A17.007,17.007,0,0,1-.951-41.2q5.832,0,8.979,2.932a10.567,10.567,0,0,1,3.143,8.124V-14.2c0,.652.022,1.3.061,1.939s.111,1.278.216,1.908l3.936.154v2.656H8.177c-.241-1.2-.412-2.167-.5-2.9a24.191,24.191,0,0,1-.166-2.473A14.021,14.021,0,0,1,2.744-8.58,13.1,13.1,0,0,1-3.824-6.9" transform="translate(13.841 41.199)" fill="#333333"/>
    </g>
    <g id="g250" transform="translate(1778.79 289.684)">
      <path id="path252" d="M0-15.488v-2.656l4.976-.4V-60.049L0-60.446v-2.688H8.643v44.591l4.979.4v2.656Z" transform="translate(0 63.133)" fill="#333333"/>
    </g>
  </g>
</svg>
