<svg xmlns="http://www.w3.org/2000/svg" width="702.412" height="62.477" viewBox="0 0 702.412 62.477">
  <g id="Grupo_42" data-name="Grupo 42" transform="translate(-614.297 -589.305)">
    <path id="Caminho_15" data-name="Caminho 15" d="M22.3-56.875,35-17.3l12.656-39.57H65.7V0H51.953V-13.281l1.328-27.187L39.531,0H30.469L16.68-40.508l1.328,27.227V0H4.3V-56.875Zm87.534,46.25H91.05L87.768,0H73.12L93.979-56.875H106.87L127.886,0H113.159ZM94.331-21.211h12.227l-6.133-19.727ZM148.857-19.3V0H135.146V-56.875h22.7a26.434,26.434,0,0,1,11.543,2.4,18.1,18.1,0,0,1,7.773,6.836,18.669,18.669,0,0,1,2.754,10.059,16.457,16.457,0,0,1-5.957,13.3Q168-19.3,157.607-19.3Zm0-10.586h8.984a8.473,8.473,0,0,0,6.074-1.992,7.4,7.4,0,0,0,2.09-5.625,9.149,9.149,0,0,0-2.148-6.367A7.608,7.608,0,0,0,158-46.289h-9.141Zm66.831,19.258H196.9L193.618,0H178.969l20.859-56.875h12.891L233.735,0H219.008ZM200.18-21.211h12.227l-6.133-19.727ZM264.038,0V-56.875h18.32a26.95,26.95,0,0,1,13.555,3.418,24.025,24.025,0,0,1,9.395,9.648,29.131,29.131,0,0,1,3.418,13.965v2.617a29.3,29.3,0,0,1-3.3,14,24.129,24.129,0,0,1-9.3,9.688A26.357,26.357,0,0,1,282.748,0Zm13.711-46.289v35.742h4.766a10.666,10.666,0,0,0,9.063-4.2q3.164-4.2,3.164-12.48v-2.461q0-8.242-3.164-12.422t-9.219-4.18Zm73.432,35.664H332.392L329.111,0H314.462l20.859-56.875h12.891L369.228,0H354.5ZM335.673-21.211H347.9l-6.133-19.727ZM421.6-15.469l11.328-41.406h15.313L429.1,0h-15L395.116-56.875h15.2Zm63.276,4.844H466.088L462.807,0H448.158l20.859-56.875h12.891L502.924,0H488.2ZM469.369-21.211H481.6l-6.133-19.727ZM556.2-19.258A20.771,20.771,0,0,1,553-8.77a19.332,19.332,0,0,1-8.223,7.051,27.987,27.987,0,0,1-12.09,2.5q-11.211,0-17.656-7.3t-6.445-20.625v-2.812a34.427,34.427,0,0,1,2.91-14.629,22.05,22.05,0,0,1,8.379-9.687A23.378,23.378,0,0,1,532.528-57.7q10.352,0,16.641,5.449t7.148,15.02H542.645q-.156-5.2-2.617-7.461t-7.5-2.266q-5.117,0-7.5,3.828t-2.5,12.227v4.023q0,9.1,2.285,13.008t7.871,3.906q4.727,0,7.227-2.227t2.656-7.07ZM580.414,0H566.742V-56.875h13.672Zm60.151,0H626.932L606.776-35.391V0H593.065V-56.875h13.711l20.117,35.391V-56.875h13.672Zm44.1-10.625H665.872L662.591,0H647.943L668.8-56.875h12.891L702.708,0H687.982ZM669.154-21.211H681.38l-6.133-19.727Z" transform="translate(610 651)" fill="#747474" opacity="0.45"/>
    <path id="Caminho_14" data-name="Caminho 14" d="M22.3-56.875,35-17.3l12.656-39.57H65.7V0H51.953V-13.281l1.328-27.187L39.531,0H30.469L16.68-40.508l1.328,27.227V0H4.3V-56.875Zm87.534,46.25H91.05L87.768,0H73.12L93.979-56.875H106.87L127.886,0H113.159ZM94.331-21.211h12.227l-6.133-19.727ZM148.857-19.3V0H135.146V-56.875h22.7a26.434,26.434,0,0,1,11.543,2.4,18.1,18.1,0,0,1,7.773,6.836,18.669,18.669,0,0,1,2.754,10.059,16.457,16.457,0,0,1-5.957,13.3Q168-19.3,157.607-19.3Zm0-10.586h8.984a8.473,8.473,0,0,0,6.074-1.992,7.4,7.4,0,0,0,2.09-5.625,9.149,9.149,0,0,0-2.148-6.367A7.608,7.608,0,0,0,158-46.289h-9.141Zm66.831,19.258H196.9L193.618,0H178.969l20.859-56.875h12.891L233.735,0H219.008ZM200.18-21.211h12.227l-6.133-19.727ZM264.038,0V-56.875h18.32a26.95,26.95,0,0,1,13.555,3.418,24.025,24.025,0,0,1,9.395,9.648,29.131,29.131,0,0,1,3.418,13.965v2.617a29.3,29.3,0,0,1-3.3,14,24.129,24.129,0,0,1-9.3,9.688A26.357,26.357,0,0,1,282.748,0Zm13.711-46.289v35.742h4.766a10.666,10.666,0,0,0,9.063-4.2q3.164-4.2,3.164-12.48v-2.461q0-8.242-3.164-12.422t-9.219-4.18Zm73.432,35.664H332.392L329.111,0H314.462l20.859-56.875h12.891L369.228,0H354.5ZM335.673-21.211H347.9l-6.133-19.727ZM421.6-15.469l11.328-41.406h15.313L429.1,0h-15L395.116-56.875h15.2Zm63.276,4.844H466.088L462.807,0H448.158l20.859-56.875h12.891L502.924,0H488.2ZM469.369-21.211H481.6l-6.133-19.727ZM556.2-19.258A20.771,20.771,0,0,1,553-8.77a19.332,19.332,0,0,1-8.223,7.051,27.987,27.987,0,0,1-12.09,2.5q-11.211,0-17.656-7.3t-6.445-20.625v-2.812a34.427,34.427,0,0,1,2.91-14.629,22.05,22.05,0,0,1,8.379-9.687A23.378,23.378,0,0,1,532.528-57.7q10.352,0,16.641,5.449t7.148,15.02H542.645q-.156-5.2-2.617-7.461t-7.5-2.266q-5.117,0-7.5,3.828t-2.5,12.227v4.023q0,9.1,2.285,13.008t7.871,3.906q4.727,0,7.227-2.227t2.656-7.07ZM580.414,0H566.742V-56.875h13.672Zm60.151,0H626.932L606.776-35.391V0H593.065V-56.875h13.711l20.117,35.391V-56.875h13.672Zm44.1-10.625H665.872L662.591,0H647.943L668.8-56.875h12.891L702.708,0H687.982ZM669.154-21.211H681.38l-6.133-19.727Z" transform="translate(614 647)" fill="#fff"/>
  </g>
</svg>
