<svg xmlns="http://www.w3.org/2000/svg" xmlns:xlink="http://www.w3.org/1999/xlink" width="225.914" height="82.381" viewBox="0 0 225.914 82.381">
  <defs>
    <filter id="map-8" x="0" y="10.531" width="73.405" height="63.016" filterUnits="userSpaceOnUse">
      <feOffset dy="3" input="SourceAlpha"/>
      <feGaussianBlur stdDeviation="3" result="blur"/>
      <feFlood flood-opacity="0.349"/>
      <feComposite operator="in" in2="blur"/>
      <feComposite in="SourceGraphic"/>
    </filter>
    <filter id="Caminho_17" x="69.665" y="0" width="156.249" height="40.039" filterUnits="userSpaceOnUse">
      <feOffset dx="3" dy="3" input="SourceAlpha"/>
      <feGaussianBlur stdDeviation="3" result="blur-2"/>
      <feFlood flood-opacity="0.349"/>
      <feComposite operator="in" in2="blur-2"/>
      <feComposite in="SourceGraphic"/>
    </filter>
    <filter id="Caminho_16" x="68.949" y="38.797" width="155.722" height="43.583" filterUnits="userSpaceOnUse">
      <feOffset dx="3" dy="3" input="SourceAlpha"/>
      <feGaussianBlur stdDeviation="3" result="blur-3"/>
      <feFlood flood-opacity="0.349"/>
      <feComposite operator="in" in2="blur-3"/>
      <feComposite in="SourceGraphic"/>
    </filter>
  </defs>
  <g id="Grupo_44" data-name="Grupo 44" transform="translate(-1095 -522.961)">
    <g transform="matrix(1, 0, 0, 1, 1095, 522.96)" filter="url(#map-8)">
      <path id="map-8-2" data-name="map-8" d="M45.016,48a8.659,8.659,0,0,0-7.866,12.275L45.016,75.7l7.866-15.427A8.659,8.659,0,0,0,45.016,48Zm0,13.851a5.194,5.194,0,1,1,5.194-5.194A5.2,5.2,0,0,1,45.016,61.851Zm2.59,16.391,3.152,6.3-7.991,3.994-2.678-13.4.45-.45.047-.047-1.65-3.246-.845.845L27.7,65.314,17.314,72.24l-6.926-6.926L0,86.091l13.851,6.926L27.7,86.091l13.851,6.926L55.4,86.091,49.561,74.407ZM12.634,88.536,4.646,84.542l6.689-13.385,3.53,3.53.45.45Zm13.337-5.451-9.685,4.842,2.5-12.509.446-.3,6.736-4.491Zm3.463,0V70.63l6.736,4.491.443.3,2.5,12.509Z" transform="translate(9 -31.47)" fill="#fff"/>
    </g>
    <g id="Grupo_43" data-name="Grupo 43">
      <g transform="matrix(1, 0, 0, 1, 1095, 522.96)" filter="url(#Caminho_17)">
        <path id="Caminho_17-2" data-name="Caminho 17" d="M8.643-22.039,13.563-6.706l4.9-15.333H25.46V0H20.132V-5.146l.515-10.535L15.318,0H11.807L6.463-15.7l.515,10.55V0H1.665V-22.039ZM42.036-4.117H34.755L33.483,0H27.807L35.89-22.039h5L49.029,0H43.322Zm-6.009-4.1h4.738l-2.376-7.644Zm20.6.742V0H51.315V-22.039H60.11a10.243,10.243,0,0,1,4.473.931,7.016,7.016,0,0,1,3.012,2.649,7.234,7.234,0,0,1,1.067,3.9,6.377,6.377,0,0,1-2.308,5.154,9.578,9.578,0,0,1-6.335,1.93Zm0-4.1H60.11a3.283,3.283,0,0,0,2.354-.772,2.868,2.868,0,0,0,.81-2.18A3.545,3.545,0,0,0,62.441-17a2.948,2.948,0,0,0-2.271-.938H56.628ZM82-4.117H74.717L73.446,0H67.77l8.083-22.039h5L88.991,0H83.285Zm-6.009-4.1h4.738L78.35-15.863ZM99.68,0V-22.039h7.1a10.443,10.443,0,0,1,5.252,1.324,9.31,9.31,0,0,1,3.64,3.739A11.288,11.288,0,0,1,117-11.564v1.014a11.353,11.353,0,0,1-1.279,5.427,9.35,9.35,0,0,1-3.6,3.754A10.213,10.213,0,0,1,106.93,0Zm5.313-17.937v13.85h1.847a4.133,4.133,0,0,0,3.512-1.627,7.974,7.974,0,0,0,1.226-4.836V-11.5a7.909,7.909,0,0,0-1.226-4.813,4.205,4.205,0,0,0-3.572-1.62Zm27.928,13.82H125.64L124.368,0h-5.676l8.083-22.039h5L139.914,0h-5.707Zm-6.009-4.1h4.738l-2.376-7.644Z" transform="translate(74 28.04)" fill="#fff"/>
      </g>
      <g transform="matrix(1, 0, 0, 1, 1095, 522.96)" filter="url(#Caminho_16)">
        <path id="Caminho_16-2" data-name="Caminho 16" d="M11.536-6.768l4.956-18.115h6.7L14.817,0H8.254L-.051-24.883H6.6ZM39.849-4.648h-8.22L30.193,0H23.785l9.126-24.883h5.64L47.745,0H41.3ZM33.064-9.28h5.349L35.73-17.91Zm38.619.854a9.087,9.087,0,0,1-1.4,4.589,8.458,8.458,0,0,1-3.6,3.085A12.244,12.244,0,0,1,61.395.342a9.771,9.771,0,0,1-7.725-3.2q-2.82-3.2-2.82-9.023v-1.23a15.062,15.062,0,0,1,1.273-6.4,9.647,9.647,0,0,1,3.666-4.238,10.228,10.228,0,0,1,5.537-1.5,10.725,10.725,0,0,1,7.28,2.384,9.42,9.42,0,0,1,3.127,6.571H65.753a4.457,4.457,0,0,0-1.145-3.264,4.709,4.709,0,0,0-3.281-.991,3.583,3.583,0,0,0-3.281,1.675,10.764,10.764,0,0,0-1.094,5.349v1.76q0,3.982,1,5.691a3.659,3.659,0,0,0,3.444,1.709,4.606,4.606,0,0,0,3.162-.974,4.134,4.134,0,0,0,1.162-3.093ZM82.906,0H76.925V-24.883h5.981Zm26.946,0h-5.964L95.07-15.483V0h-6V-24.883h6l8.8,15.483V-24.883h5.981Zm19.922-4.648h-8.22L120.119,0H113.71l9.126-24.883h5.64L137.67,0h-6.443ZM122.99-9.28h5.349l-2.683-8.63Z" transform="translate(75 70.04)" fill="#fff"/>
      </g>
    </g>
  </g>
</svg>
