<svg xmlns="http://www.w3.org/2000/svg" width="540.552" height="138.624" viewBox="0 0 540.552 138.624">
  <g id="Grupo_42" data-name="Grupo 42" transform="translate(-314.448 -575)">
    <g id="Grupo_41" data-name="Grupo 41" transform="translate(0 -203.942)">
      <g id="g20" transform="translate(341.351 846.209)">
        <path id="path22" d="M0,0A12.946,12.946,0,0,0,5.448-5.413a17.441,17.441,0,0,0,1.883-8.359V-40.307l5.179-1.041v-6.421h-22.6v6.387l6.66,1.076v26.535a8.286,8.286,0,0,1-.909,4.1A5.841,5.841,0,0,1-6.709-7.281a6.735,6.735,0,0,1-3.213.772,6.451,6.451,0,0,1-4.7-1.765q-1.82-1.76-2.123-6.539H-26.839l-.064.2a18.615,18.615,0,0,0,2.471,9.3A13.822,13.822,0,0,0-18.143.117,23.109,23.109,0,0,0-8.709,1.9,18.322,18.322,0,0,0,0,0M35.935.587a11.877,11.877,0,0,0,4.284-3.765l.709,4.372H54.851V-5.193L50.376-6.24V-35.192H35.412v6.421l4.137,1.043V-9.061a6.919,6.919,0,0,1-2.524,1.951,7.764,7.764,0,0,1-3.228.669,4.5,4.5,0,0,1-3.751-1.545,7.78,7.78,0,0,1-1.227-4.841V-35.192H14.056v6.421l3.936,1.043V-12.9q0,7.562,3.247,11.179T30.2,1.9A12.3,12.3,0,0,0,35.935.587m41.681.607V-5.193l-4.5-1.047V-35.192H57.169v6.421l5.144,1.043V-6.24l-4.5,1.047V1.193Zm-4.469-52.46H61.981v8.777H73.146Zm40.419,52.46V-13.336h-7.5L104.42-6.475H95.745l17.219-21.86v-6.857H82.36v13.655h7.868l1.213-6.26h8.641L81.416-4.924V1.193ZM154.678.587a11.734,11.734,0,0,0,3.987-3.864l.807,4.471h13.855V-5.193L168.852-6.24V-51.267H152.845v6.421l5.179,1.041v12.511a11.77,11.77,0,0,0-3.78-3.38,10.539,10.539,0,0,0-5.131-1.193,11.552,11.552,0,0,0-7.281,2.387,15.154,15.154,0,0,0-4.739,6.661,27.39,27.39,0,0,0-1.668,9.985v.709a25.124,25.124,0,0,0,1.648,9.483,14.046,14.046,0,0,0,4.744,6.3,12.285,12.285,0,0,0,7.4,2.24A10.845,10.845,0,0,0,154.678.587m-7.012-9.58a14.92,14.92,0,0,1-1.413-7.131v-.709a21.967,21.967,0,0,1,.64-5.6,7.9,7.9,0,0,1,2.035-3.747,5.024,5.024,0,0,1,3.648-1.349,5.983,5.983,0,0,1,3.145.841,6.682,6.682,0,0,1,2.3,2.391V-9.268a5.948,5.948,0,0,1-2.337,2.1,6.9,6.9,0,0,1-3.179.724,5.075,5.075,0,0,1-4.841-2.552M201.573.724a21.164,21.164,0,0,0,5.82-2.924l-2.656-6.593a22.373,22.373,0,0,1-4.627,1.849,18.533,18.533,0,0,1-4.757.607,8.57,8.57,0,0,1-4.152-.925,6.706,6.706,0,0,1-2.641-2.523,9.2,9.2,0,0,1-1.179-3.649l.035-.233h20.716v-5.717a20.566,20.566,0,0,0-1.767-8.964,12.356,12.356,0,0,0-5.159-5.6,16.775,16.775,0,0,0-8.343-1.917,15.982,15.982,0,0,0-8.945,2.372,15.539,15.539,0,0,0-5.716,6.641,22.694,22.694,0,0,0-1.985,9.717v1.281a18.907,18.907,0,0,0,2.171,9.131,15.951,15.951,0,0,0,6.1,6.317A17.914,17.914,0,0,0,193.738,1.9,24.323,24.323,0,0,0,201.573.724M187.352-20.731a15.057,15.057,0,0,1,.856-3.716,5.84,5.84,0,0,1,1.815-2.573,4.815,4.815,0,0,1,3.081-.944,5.1,5.1,0,0,1,2.957.773,4.373,4.373,0,0,1,1.615,2.24,10.932,10.932,0,0,1,.5,3.511v.876h-10.7ZM250.037,1.193V-5.193L244.887-6.24V-18.751h16.887V-27.02H244.887V-39.432h15.136l.3,5.585h8.241V-47.769H228.915v6.421l5.144,1.041V-6.24l-5.144,1.047V1.193ZM297.773-.455a15.672,15.672,0,0,0,5.971-6.539,21.429,21.429,0,0,0,2.084-9.668v-.675a21.3,21.3,0,0,0-2.084-9.649,15.68,15.68,0,0,0-5.971-6.529,17.861,17.861,0,0,0-9.4-2.352,17.748,17.748,0,0,0-9.384,2.372A15.759,15.759,0,0,0,273-26.956a21.249,21.249,0,0,0-2.083,9.62v.675A21.509,21.509,0,0,0,273-6.959a15.5,15.5,0,0,0,6.005,6.524A18.123,18.123,0,0,0,288.442,1.9a17.684,17.684,0,0,0,9.331-2.357M284.554-7.6a7.24,7.24,0,0,1-2.133-3.58,19.787,19.787,0,0,1-.673-5.481v-.675a19.18,19.18,0,0,1,.673-5.365,7.466,7.466,0,0,1,2.133-3.6,5.567,5.567,0,0,1,3.819-1.291,5.606,5.606,0,0,1,3.849,1.291,7.572,7.572,0,0,1,2.152,3.6,18.81,18.81,0,0,1,.689,5.365v.675a19.283,19.283,0,0,1-.689,5.448,7.528,7.528,0,0,1-2.132,3.595,5.516,5.516,0,0,1-3.8,1.281A5.753,5.753,0,0,1,284.554-7.6m46.16,8.793V-5.193L326.239-6.24V-23.185a6.761,6.761,0,0,1,2.119-1.9,5.927,5.927,0,0,1,3.06-.552l4.979.235,1.111-9.923a13.239,13.239,0,0,0-1.972-.4,13.441,13.441,0,0,0-1.8-.137,7.269,7.269,0,0,0-4.636,1.481,10.991,10.991,0,0,0-3.164,4.539l-.069-.875-.332-4.471H310.3v6.421l5.111,1.043V-6.24l-4.475,1.047V1.193ZM356.907.655a13.092,13.092,0,0,0,3.9-3.364,8.72,8.72,0,0,0,.621,2.088c.3.695.593,1.3.863,1.815h12.944V-5.193L371.4-5.8a8.476,8.476,0,0,1-.153-1.4c-.008-.479-.013-.979-.013-1.5V-22.888q0-6.25-4.256-9.613t-11.516-3.365a26.182,26.182,0,0,0-7.5,1.008,38,38,0,0,0-6.324,2.524l.137,9.751h7.7l.773-4.7a7.814,7.814,0,0,1,2.035-.96,8.389,8.389,0,0,1,2.5-.356,5.349,5.349,0,0,1,4.255,1.6,5.854,5.854,0,0,1,1.4,3.985V-20.6H356.1a24.409,24.409,0,0,0-9.112,1.483,11.838,11.838,0,0,0-5.5,4.1,10.241,10.241,0,0,0-1.835,6.02A10.212,10.212,0,0,0,342.9-1.061,12.3,12.3,0,0,0,351.527,1.9a10.809,10.809,0,0,0,5.38-1.248m-5.36-7.565A3.512,3.512,0,0,1,350.383-9.7a3.987,3.987,0,0,1,1.5-3.179,6.486,6.486,0,0,1,4.289-1.261h4.275v5.516a6.887,6.887,0,0,1-2.579,2,7.6,7.6,0,0,1-3.241.724,4.53,4.53,0,0,1-3.076-1.008" fill="#ffffff"/>
      </g>
      <g id="g24" transform="translate(481.871 901.34)">
        <path id="path26" d="M0,0V-3.309l-4.279-.735v-11.3H3.833a15.687,15.687,0,0,0,6.989-1.417,10.148,10.148,0,0,0,4.411-3.992,11.628,11.628,0,0,0,1.525-6.044,11.556,11.556,0,0,0-1.525-6.011,10.279,10.279,0,0,0-4.411-4.008,15.611,15.611,0,0,0-6.989-1.429H-13.737v3.335l4.279.735V-4.044l-4.279.735V0ZM-4.279-34.173H3.833q3.888,0,5.82,2.127a7.605,7.605,0,0,1,1.932,5.307,7.461,7.461,0,0,1-1.932,5.268q-1.93,2.088-5.82,2.087H-4.279ZM33.832,0V-3.309l-4.284-.735v-16.1A6.913,6.913,0,0,1,31.7-22.993a4.951,4.951,0,0,1,3.443-.935l3.595.211.685-4.808A7.759,7.759,0,0,0,38.2-28.8a9.876,9.876,0,0,0-1.668-.145,6.946,6.946,0,0,0-4.059,1.232A9.983,9.983,0,0,0,29.5-24.3l-.055-.5L29-28.421H20.095v3.339l4.279.733V-4.044l-4.279.735V0Zm27.2-.46a12.381,12.381,0,0,0,4.029-2.484L63.043-6.3A10.588,10.588,0,0,1,59.613-4.24,13.047,13.047,0,0,1,55-3.491,6.942,6.942,0,0,1,50.9-4.7a7.645,7.645,0,0,1-2.612-3.327,12.79,12.79,0,0,1-.959-4.845L47.412-13H65.849v-3.228a15.919,15.919,0,0,0-1.311-6.715,9.91,9.91,0,0,0-3.9-4.425,12.14,12.14,0,0,0-6.421-1.575,10.649,10.649,0,0,0-6.053,1.853,13.377,13.377,0,0,0-4.441,5.041,15.42,15.42,0,0,0-1.667,7.239v1.153a16.469,16.469,0,0,0,1.588,7.409,12.012,12.012,0,0,0,4.5,5A12.809,12.809,0,0,0,55,.553,16.082,16.082,0,0,0,61.032-.46M47.515-17.18a11.65,11.65,0,0,1,1.208-3.936,7.786,7.786,0,0,1,2.337-2.748,5.344,5.344,0,0,1,3.155-1.008,6.437,6.437,0,0,1,3.585.929,5.81,5.81,0,0,1,2.156,2.548,8.915,8.915,0,0,1,.719,3.668v.68H47.569ZM84.105,0V-3.309L79.22-4.044V-24.583h6.2v-3.839h-6.2v-3.6a6.06,6.06,0,0,1,1.105-3.927A4.1,4.1,0,0,1,83.714-37.3a14.951,14.951,0,0,1,1.511.079,10.576,10.576,0,0,1,1.272.185l.631-3.941c-.735-.176-1.448-.308-2.143-.405a13.682,13.682,0,0,0-1.931-.147,8.737,8.737,0,0,0-6.632,2.484q-2.378,2.478-2.377,7.027v3.6h-4.44v3.839h4.44V-4.044l-4.279.735V0Zm23.523-.46a12.41,12.41,0,0,0,4.035-2.484L109.638-6.3a10.589,10.589,0,0,1-3.429,2.064,13.024,13.024,0,0,1-4.611.749A6.952,6.952,0,0,1,97.5-4.7a7.711,7.711,0,0,1-2.611-3.327,12.816,12.816,0,0,1-.959-4.845L94.008-13h18.441v-3.228a15.939,15.939,0,0,0-1.315-6.715,9.918,9.918,0,0,0-3.9-4.425,12.13,12.13,0,0,0-6.421-1.575,10.669,10.669,0,0,0-6.055,1.853,13.327,13.327,0,0,0-4.435,5.041,15.343,15.343,0,0,0-1.673,7.239v1.153a16.522,16.522,0,0,0,1.589,7.409,11.988,11.988,0,0,0,4.509,5A12.779,12.779,0,0,0,101.6.553,16.079,16.079,0,0,0,107.628-.46M94.116-17.18a11.416,11.416,0,0,1,1.208-3.936,7.692,7.692,0,0,1,2.337-2.748,5.32,5.32,0,0,1,3.149-1.008,6.434,6.434,0,0,1,3.585.929,5.776,5.776,0,0,1,2.156,2.548,8.937,8.937,0,0,1,.724,3.668v.68H94.165ZM130.021,0V-3.309l-4.284-.735V-28.421h-9.453v3.339l4.279.733V-4.044l-4.279.735V0Zm-4.284-40.976H120.3v5.541h5.439ZM146.688.187a21.353,21.353,0,0,0,2.773-.607l-.709-3.388c-.421.087-1.008.189-1.761.3a14.072,14.072,0,0,1-2.048.171,2.692,2.692,0,0,1-2.181-.972,4.648,4.648,0,0,1-.817-3.024V-24.583h6.176v-3.839h-6.176v-6.852H136.77v6.852H132.28v3.839h4.491V-7.331c0,2.72.62,4.691,1.853,5.928a6.761,6.761,0,0,0,5,1.848,19.836,19.836,0,0,0,3.061-.259m23.455-.871A9.626,9.626,0,0,0,173.6-4.2l.337,4.2h7.908V-3.309l-3.257-.735V-28.421H169.6v3.339l3.811.733V-7.931a7,7,0,0,1-2.72,3.164,8.532,8.532,0,0,1-4.557,1.115,4.977,4.977,0,0,1-4.176-1.708c-.891-1.133-1.341-3.223-1.341-6.249V-28.421h-8.431v3.339l3.257.733v12.687q0,6.28,2.6,9.247A9.09,9.09,0,0,0,165.272.553a9.456,9.456,0,0,0,4.871-1.237M199.157,0V-3.309l-4.284-.735v-16.1a6.9,6.9,0,0,1,2.156-2.845,4.94,4.94,0,0,1,3.439-.935l3.6.211.683-4.808a7.948,7.948,0,0,0-1.223-.275,9.825,9.825,0,0,0-1.667-.145,6.937,6.937,0,0,0-4.059,1.232,10,10,0,0,0-2.984,3.417l-.048-.5-.451-3.627h-8.9v3.339l4.279.733V-4.044l-4.279.735V0Zm22.731-.723a12.531,12.531,0,0,0,3.747-3.189c.033.611.092,1.223.18,1.839s.211,1.3.368,2.073h7.437V-3.309L230.861-3.6c-.039-.347-.057-.7-.068-1.051s-.015-.711-.015-1.077V-19.409a8.709,8.709,0,0,0-2.939-7.067q-2.942-2.472-8.119-2.469a18.775,18.775,0,0,0-5.648.8,13.383,13.383,0,0,0-4.465,2.351v6.515h4l.552-3.967a8.865,8.865,0,0,1,2.387-1.2,9.924,9.924,0,0,1,3.1-.431,6.3,6.3,0,0,1,4.4,1.417,5.111,5.111,0,0,1,1.56,3.991v2.783h-5.067a18.142,18.142,0,0,0-6.724,1.12,9.544,9.544,0,0,0-4.293,3.125,7.7,7.7,0,0,0-1.487,4.715,7.97,7.97,0,0,0,2.313,6.108q2.31,2.164,6.748,2.167a9.549,9.549,0,0,0,4.793-1.276m-7.527-4.044a3.541,3.541,0,0,1-1.155-2.852,5.171,5.171,0,0,1,1.785-3.8,7.492,7.492,0,0,1,5.361-1.713H225.6v5.151a7.612,7.612,0,0,1-3.047,2.968,9.194,9.194,0,0,1-4.7,1.237,5.305,5.305,0,0,1-3.5-.987" fill="#ffffff"/>
      </g>
    </g>
    <g id="g28" transform="translate(748.159 659.79)">
      <path id="path30" d="M0,0A1.8,1.8,0,0,1-1.423-1.595c.161-.084.317-.2.449-.265a2.728,2.728,0,0,0,1.124-1.6,3,3,0,0,1,.489,0A1.777,1.777,0,0,1,2.048-1.375,1.755,1.755,0,0,1,0,0M44.943-28.463h5.643v1.947H44.943Zm5.476-16.089.025.405-1.575.084.308,5.115h.083v1.921h.925l-.445,3.136H45.951L45.5-37.027h.939v-1.921h.4a3.753,3.753,0,0,0-.028-.557c-.04,0-.04-.044-.04-.044a.319.319,0,0,0-.117-.152c-.024-.053-.068-.127-.035-.185l.035-.181-.088-.171-.161-.24a.859.859,0,0,1-.093-.176.341.341,0,0,1,.04-.249l.009-.024.083-.313a.7.7,0,0,0,.053-.3.663.663,0,0,0,0-.38l-.015-.48a1.6,1.6,0,0,1-.6-.7,1.66,1.66,0,0,1-.147-.889v-.015c.055,0,.088.015.088-.049,0,0-.033-.171-.088-.191-.088-.029-.112-.063-.156-.151-.073-.152-.024-.339.044-.339.011,0,.259.187.211.279l.009.005c.133.147.215.205.235.381,0,.064,0,.04.083,0l.044.475a.21.21,0,0,0,.079.185l.161.255.031.04.008-.016a.207.207,0,0,1,.084-.009h.151a.161.161,0,0,1,.123.064l.049.044.1.092c0-.249.107-.655.293-.7.195-.033.4.119.4.431a1.693,1.693,0,0,0,.156.607c.044.035.083.035.141.1a.591.591,0,0,1,.192.293l.087.363c.025.02.036.02.095.02h.023c.044,0,.133-.02.148-.088v-.128c0-.044.053-.132.1-.132l-.1-1.873-1.585.073-.019-.323,1.589-.073L48.419-45.7l.348-.04L48.84-44.4Zm-1.6,5.6-.125-2.465a.5.5,0,0,0-.069.1h-.029c-.015.039-.068.039-.083.068a3.371,3.371,0,0,0,.161.792v.073l-.049-.019c-.029-.025-.044-.025-.1-.025,0,0-.04,0-.04.064l.04.176v.239c-.015.02-.04.02-.068.055-.036.015-.036.024-.06.059,0,.035-.043.035-.043.073a.2.2,0,0,1-.059.1.472.472,0,0,0,.059.26c0,.077.043.191.043.351v.093Zm-2.468,5.457h2.9v3.443h.493l.845,1.184H44.943l.851-1.184h.553Zm1.447,20.179h7.057v-.627l-.475.011v-.563h-.445v-.631H52.273v-7.664h-1.7l-.059-.059-2.72-2.812-2.748,2.812-.064.059h-1.7v7.664H41.627v.631h-.444v.563l-.465-.011v.627Zm5.068-9.933H50.772l-2.852-2.88h4.941Zm-5.248-2.88H47.6l-2.816,2.88H42.673v-2.88Zm.18,1.7a1.779,1.779,0,0,1,1.272,1.037l.024.009.015.029.011.039h.009l.011.055h.023v.013l.02.02v.064l.016.024h0l.016.035h0v.024l.031.049v.053l.019.035h.02l.02.053.013.015v.029h.016l.015.059.009.009v.064h.029v.123l.02.053.005.015.008.045v.013l.011.011.02.048,0,.02.016.039v.015l.023.064v.044l.016.039v.005l.009.044v.22l.019.015v.167l.04.024v.181h-.363v6.407H46.307v-6.407h-.317v-.205l.02-.035V-21.9h.009V-22h.033v-.137l.02-.044v-.167l.015-.039.024-.02v-.059h.025v-.073l.019-.053v-.044l.011-.029.033-.029v-.093l.02-.059h.011l.015-.029.013-.015h.02l.005-.053v-.035l.024-.053v-.049h.02l.02-.024h.009v-.035h.009l.009-.024.025-.064v-.033h.011l.008-.055h.02v-.039l.031-.029.008-.009a1.82,1.82,0,0,1,1.316-1.037m4.617-2.5H52.2a.348.348,0,0,0-.341.317.328.328,0,0,0,.341.332h.207a.336.336,0,0,0,.308-.332.363.363,0,0,0-.308-.317m-.025-.553h-.171a.24.24,0,0,0-.231.255.227.227,0,0,0,.231.191h.171a.235.235,0,0,0,.22-.191.247.247,0,0,0-.22-.255m-9.228.553h.2a.336.336,0,0,1,.308.317.316.316,0,0,1-.308.332h-.2a.317.317,0,0,1-.317-.332.336.336,0,0,1,.317-.317m.029-.553h.127a.261.261,0,0,1,.265.255c0,.079-.117.191-.265.191h-.127a.247.247,0,0,1-.24-.191.254.254,0,0,1,.24-.255m4.876,81.313c17.371,0,32-6.6,43.613-20.7a2.3,2.3,0,0,0,.644-2.651c-.541-1.481-.957-2.743-1.476-4.084-.273-.733-.621-1.584-.895-2.319-2.417-.044-4.885-.22-7.149.557-.66.236-1.307.427-1.551.133-1.961-2.167,17.268-1.2,21.777-.865,1.325.108.963.768.543.768-.284,0-.187-.177-.563-.245a6.457,6.457,0,0,0-2.147-.049,2.711,2.711,0,0,0-1.443,1.752c-.4,1.133-.469,2.269.367,2.963a10.113,10.113,0,0,0,3.5,2.148c-.577-1.5-.064-2.96-.009-4.509l-1.589.625c-1.727.723,0,.723.343,2.6.063.156.063.2.033.2s-.033,0-.033-.025v-.029a1.843,1.843,0,0,1-.056-.307,1.977,1.977,0,0,0-.424-.621c-.515-.529-1.3-.841-1.164-1.443.161-.764,3.3-1.541,4.259-2.24.841-.553,1.243-.484.876-1.8a19.109,19.109,0,0,1,.3-10.737c.3-.852-.064-.988-.783-.988-3.325.028-6.768,0-10.235-.1,1.96-6.073-3.087-14.828-7.664-17.9V.048a39.861,39.861,0,0,1-.484,6.2,10.815,10.815,0,0,0,4.44,5.56c-1.227-.019-2.409-.019-3.593-.068-1.683-.035-2.205.865-2.323,2.319C84.314,17.776,83.1,21.112,80.886,23c-2.733,2.093,1.481,3.863,4.724,5.155,2.088.847,6.876,2.675,4.8,5.5a.47.47,0,0,1-.265.075c-.131,0,1.008-1.008-.044-2-1.951-1.868-9.08-4.279-10.445-4.885-.367.451-.724.847-1.1,1.291-.64.689-1.315,1.419-2.009,2.064A40.345,40.345,0,0,1,47.793,42.169,40.45,40.45,0,0,1,18.989,30.2a38.275,38.275,0,0,1-3-3.336c-1.529.685-8.415,3.008-10.347,4.867-1.056.988.088,2-.068,2a.326.326,0,0,1-.225-.075c-2.089-2.821,2.665-4.649,4.792-5.5C13.345,26.867,17.581,25.1,14.865,23c-2.259-1.892-3.447-5.228-4.323-8.944-.112-1.453-.616-2.353-2.293-2.319-1.267.049-2.523.049-3.8.068a10.827,10.827,0,0,0,4.461-5.56,40.141,40.141,0,0,1-.495-6.2V-6.027C3.819-2.955-1.2,5.8.728,11.873c-3.36.1-6.768.127-10.044.1-.719,0-1.072.136-.8.988A18.88,18.88,0,0,1-9.781,23.7c-.381,1.317.029,1.248.875,1.8.964.7,4.108,1.476,4.275,2.24.1.6-.665.913-1.183,1.443a1.579,1.579,0,0,0-.4.621c0,.072-.044.161-.069.307v.029c0,.025-.025.035-.033.025s-.02-.044.008-.2c.333-1.88,2.08-1.88.333-2.6l-1.569-.625c.064,1.549.557,3.008-.02,4.509A10.034,10.034,0,0,0-4.049,29.1c.836-.693.767-1.829.361-2.963a2.658,2.658,0,0,0-1.433-1.752,6.446,6.446,0,0,0-2.147.049c-.357.068-.293.245-.563.245-.429,0-.772-.66.533-.768,4.544-.337,23.739-1.3,21.768.865-.235.293-.876.1-1.527-.133-2.264-.777-4.729-.6-7.149-.557-.268.735-.656,1.585-.915,2.319-.493,1.341-.944,2.6-1.463,4.084a2.286,2.286,0,0,0,.651,2.651c11.616,14.1,26.247,20.7,43.613,20.7h.381ZM75.942,36.2l.431-.332a1.44,1.44,0,0,1,.523-.3.784.784,0,0,1,.475.028,1.215,1.215,0,0,1,.427.348.812.812,0,0,1,.248.739,1.236,1.236,0,0,1-.568.709l-.351.259Zm1.844,2.245.489-.361a1.04,1.04,0,0,1,.524-.288.836.836,0,0,1,.517,0,1.446,1.446,0,0,1,.544.415,1.525,1.525,0,0,1,.3.621.693.693,0,0,1-.117.5,1.887,1.887,0,0,1-.46.455l-.445.348Zm-6.108.377.591-.343a1.218,1.218,0,0,1,.827-.147,1.035,1.035,0,0,1,.583.519,1.322,1.322,0,0,1,.2.635.679.679,0,0,1-.156.46,1.173,1.173,0,0,1-.473.381l-.553.284ZM88.609,21.293H87.245v-4.6H85.869v-.876H86a2.041,2.041,0,0,0,1.095-.249,1.234,1.234,0,0,0,.5-.807h1.017Zm1.164-1.855a1.883,1.883,0,0,1,.123-.729,1.376,1.376,0,0,1,.38-.567,1.242,1.242,0,0,1,.651-.3v-.031a1.141,1.141,0,0,1-.473-.2,1.073,1.073,0,0,1-.309-.332,1.755,1.755,0,0,1-.161-.348,2.519,2.519,0,0,1-.033-.381,1.871,1.871,0,0,1,.245-1.041,1.344,1.344,0,0,1,.664-.583,2.587,2.587,0,0,1,1.065-.171,2.846,2.846,0,0,1,1.1.171,1.627,1.627,0,0,1,.664.583,2.12,2.12,0,0,1,.22,1.041,1.444,1.444,0,0,1-.048.381,1.261,1.261,0,0,1-.445.68,1.311,1.311,0,0,1-.491.2v.031a1.169,1.169,0,0,1,.652.3,1.277,1.277,0,0,1,.391.567,2.13,2.13,0,0,1,.152.729,2.359,2.359,0,0,1-.075.519,1.913,1.913,0,0,1-.184.528,2.3,2.3,0,0,1-.337.488,2.378,2.378,0,0,1-.652.32,2.787,2.787,0,0,1-.944.136,2.929,2.929,0,0,1-.939-.136,1.778,1.778,0,0,1-.625-.32,2.953,2.953,0,0,1-.377-.488,2.658,2.658,0,0,1-.176-.528c-.013-.185-.033-.367-.033-.519m1.5-2.9h0a1.243,1.243,0,0,1,.151-.684.591.591,0,0,1,.5-.255.536.536,0,0,1,.5.255,1.155,1.155,0,0,1,.157.684,1.049,1.049,0,0,1-.073.48c-.059.151-.128.253-.24.273-.088.156-.205.156-.348.156a.377.377,0,0,1-.361-.156.4.4,0,0,1-.209-.273,1.037,1.037,0,0,1-.084-.48m-.117,2.9h0a2,2,0,0,1,.064-.587.777.777,0,0,1,.249-.391.678.678,0,0,1,.459-.143.8.8,0,0,1,.485.143,1.1,1.1,0,0,1,.244.391,4.266,4.266,0,0,1,.025.587,3.505,3.505,0,0,1-.025.553,1.016,1.016,0,0,1-.244.425.807.807,0,0,1-.485.127.688.688,0,0,1-.459-.127.757.757,0,0,1-.249-.425,1.63,1.63,0,0,1-.064-.553M98.79,14.9v1H96.306l-.163,1.555h.025a1.114,1.114,0,0,1,.495-.429,3.956,3.956,0,0,1,.763-.084,3.107,3.107,0,0,1,.675.084,2.027,2.027,0,0,1,.46.343,1.292,1.292,0,0,1,.3.453,2.255,2.255,0,0,1,.156.588,2.787,2.787,0,0,1,.059.607,4.49,4.49,0,0,1-.1.983,1.965,1.965,0,0,1-.337.759,1.334,1.334,0,0,1-.651.5,2.868,2.868,0,0,1-1.08.176,3.437,3.437,0,0,1-.867-.108,2.237,2.237,0,0,1-.587-.332,1.192,1.192,0,0,1-.332-.445,1.106,1.106,0,0,1-.167-.455,1.338,1.338,0,0,1-.015-.479v-.172h1.276a1.206,1.206,0,0,0,.031.343c.023.1.053.235.087.357a.7.7,0,0,0,.211.279.577.577,0,0,0,.347.083.648.648,0,0,0,.612-.3,1.721,1.721,0,0,0,.2-.944,5.857,5.857,0,0,0-.02-.668,1.177,1.177,0,0,0-.161-.441.266.266,0,0,0-.22-.225.674.674,0,0,0-.391-.072.721.721,0,0,0-.46.161,1.091,1.091,0,0,0-.2.415H95.029L95.28,14.9Zm2.495,2.919h0c0-.367.024-.772.033-1.036a2.428,2.428,0,0,1,.117-.709.679.679,0,0,1,.216-.337.488.488,0,0,1,.377-.132.573.573,0,0,1,.361.1.593.593,0,0,1,.209.337,1.53,1.53,0,0,1,.133.612,5.657,5.657,0,0,1,.033,1.007v.724a6.615,6.615,0,0,1-.029,1.033,2.313,2.313,0,0,1-.137.679.721.721,0,0,1-.209.4.967.967,0,0,1-.361.059,1.04,1.04,0,0,1-.363-.059.643.643,0,0,1-.231-.3,1.765,1.765,0,0,1-.117-.621c-.009-.251-.033-.632-.033-1Zm-1.384.44a9.316,9.316,0,0,1,.039-1.047,4.711,4.711,0,0,1,.128-.961,1.967,1.967,0,0,1,.347-.8,1.855,1.855,0,0,1,.62-.493,2.38,2.38,0,0,1,.995-.2,2.155,2.155,0,0,1,1,.171,1.2,1.2,0,0,1,.673.519,3.678,3.678,0,0,1,.363.993c.039.435.088.92.088,1.476.009.368,0,.739-.024,1.076a4.188,4.188,0,0,1-.156.964,2.109,2.109,0,0,1-.309.757,1.236,1.236,0,0,1-.655.509,1.94,1.94,0,0,1-.977.205,2.358,2.358,0,0,1-.995-.176,1.41,1.41,0,0,1-.673-.539A2.751,2.751,0,0,1,100,19.708a9.039,9.039,0,0,1-.1-1.453M-5.2,21.293h-1.38v-4.6H-7.917v-.876h.131a2.075,2.075,0,0,0,1.077-.249,1.184,1.184,0,0,0,.5-.807H-5.2Zm1.443-6.4H.4v.983c-.259.416-.519.841-.757,1.237-.207.435-.388.891-.555,1.355a11.773,11.773,0,0,0-.415,1.413,13.305,13.305,0,0,0-.259,1.409H-3.013a9.411,9.411,0,0,1,.24-1.239,6.661,6.661,0,0,1,.387-1.309,13.092,13.092,0,0,1,.616-1.384c.235-.427.548-.881.855-1.327h-2.84ZM2.4,17.815h0c0-.367,0-.732.015-1.036.049-.273.068-.493.121-.709a.62.62,0,0,1,.235-.337.48.48,0,0,1,.363-.132.564.564,0,0,1,.6.435,2.718,2.718,0,0,1,.117.612c.019.255.024.581.024,1.007v.724c0,.427-.005.749-.024,1.033a2.422,2.422,0,0,1-.117.679,1.121,1.121,0,0,1-.22.4,1.163,1.163,0,0,1-.381.059,1.142,1.142,0,0,1-.363-.059.713.713,0,0,1-.22-.3,3.89,3.89,0,0,1-.136-.621c-.015-.251-.015-.632-.015-1Zm-1.384.44c0-.351,0-.713.029-1.047a6.99,6.99,0,0,1,.143-.961,2.041,2.041,0,0,1,.345-.8,1.774,1.774,0,0,1,.6-.493,2.393,2.393,0,0,1,1-.2,2.376,2.376,0,0,1,1.027.171,1.37,1.37,0,0,1,.647.519,2.5,2.5,0,0,1,.336.993,8.256,8.256,0,0,1,.123,1.476c0,.4-.024.739-.024,1.076a8.427,8.427,0,0,1-.152.964,2.329,2.329,0,0,1-.328.757,1.278,1.278,0,0,1-.649.539,2.3,2.3,0,0,1-.979.176,2.573,2.573,0,0,1-1.012-.176,1.238,1.238,0,0,1-.651-.539,2.108,2.108,0,0,1-.343-1.007,7.215,7.215,0,0,1-.112-1.453m7.849,3.039H7.487v-4.6H6.151v-.876h.113a1.979,1.979,0,0,0,1.071-.249,1.167,1.167,0,0,0,.519-.807H8.861ZM22.4,38.008a.591.591,0,0,1,.308.083.663.663,0,0,1,.264.255.626.626,0,0,1,0,.4,2.436,2.436,0,0,1-.3.709c-.161.3-.363.621-.627,1.031s-.5.744-.689,1a2.688,2.688,0,0,1-.548.573.508.508,0,0,1-.356.191,1.078,1.078,0,0,1-.343-.1.669.669,0,0,1-.249-.268,1.083,1.083,0,0,1,0-.407,3.92,3.92,0,0,1,.283-.709c.171-.279.4-.635.647-1.056.259-.381.493-.7.693-1A4.058,4.058,0,0,1,22,38.155a.85.85,0,0,1,.357-.147ZM8.66,34.028l5.389-4.883,1.8,1.84a3.109,3.109,0,0,1,.44.625,1.8,1.8,0,0,1,.156.676,1.631,1.631,0,0,1-.123.576,2.787,2.787,0,0,1-.289.539,5.138,5.138,0,0,1-.42.484,2.5,2.5,0,0,1-.856.513,1.606,1.606,0,0,1-.845.147,2.472,2.472,0,0,1-.8-.273,4.609,4.609,0,0,1-.747-.577l-.54-.557L9.673,35.075Zm9.257.312.513.473a1.092,1.092,0,0,1,.427.641,1.076,1.076,0,0,1-.332.759,1.436,1.436,0,0,1-.5.352.808.808,0,0,1-.535.044,1.128,1.128,0,0,1-.5-.361l-.479-.357ZM14.26,30.931h0l.431.427a1.256,1.256,0,0,1,.313.5.712.712,0,0,1-.06.489,1.333,1.333,0,0,1-.385.493,1.46,1.46,0,0,1-.524.332,1.325,1.325,0,0,1-.523,0,1.676,1.676,0,0,1-.431-.313l-.475-.453Zm-1.609,7.077h0l4.836-5.457,2.089,1.789a2.113,2.113,0,0,1,.651.793,1.393,1.393,0,0,1,.087.9,1.774,1.774,0,0,1-.5.94,2.189,2.189,0,0,1-.671.533,1.392,1.392,0,0,1-.732.229,1.633,1.633,0,0,1-.74-.229v.039a1.207,1.207,0,0,1,.343.533.826.826,0,0,1,.011.513,2.42,2.42,0,0,1-.328.6,8.5,8.5,0,0,1-.6.764,2.978,2.978,0,0,0-.409.483,1.146,1.146,0,0,0-.22.4.471.471,0,0,0,.024.293l-.044.049L15.2,40.136a2.212,2.212,0,0,1,.137-.353,1.813,1.813,0,0,1,.235-.3l.909-1.084a.937.937,0,0,0,.268-.627.873.873,0,0,0-.312-.612l-.616-.5-2.049,2.284Zm6.632.821a9.478,9.478,0,0,1,.724-1.012,4.134,4.134,0,0,1,.7-.773,3.761,3.761,0,0,1,.8-.479,1.9,1.9,0,0,1,.9-.025,2.675,2.675,0,0,1,1.052.412,3.14,3.14,0,0,1,.855.708,2.5,2.5,0,0,1,.329.817,1.693,1.693,0,0,1-.075.865,3.644,3.644,0,0,1-.4.983,8.215,8.215,0,0,1-.621,1.077c-.231.371-.473.708-.7,1.012a3.935,3.935,0,0,1-.713.757,2.552,2.552,0,0,1-.8.456,2.317,2.317,0,0,1-.905.087,3.483,3.483,0,0,1-1.056-.44,3.413,3.413,0,0,1-.845-.733,1.863,1.863,0,0,1-.337-.817,2.351,2.351,0,0,1,.067-.856,5.327,5.327,0,0,1,.407-1.007c.2-.319.391-.665.621-1.032m4.885,6.964h0l3.252-6.451,2.328,1.135a2.179,2.179,0,0,1,.651.455,1.359,1.359,0,0,1,.381.524,2.4,2.4,0,0,1,.128.591,3.07,3.07,0,0,1-.084.656,3.188,3.188,0,0,1-.231.572,2.761,2.761,0,0,1-.611.8,1.64,1.64,0,0,1-.7.381,2.076,2.076,0,0,1-.852.039,2.706,2.706,0,0,1-.9-.288l-.728-.328-1.287,2.563Zm4.093-4.847.563.275a1.024,1.024,0,0,1,.455.365.583.583,0,0,1,.147.471,1.194,1.194,0,0,1-.176.591,1.389,1.389,0,0,1-.4.509.682.682,0,0,1-.46.137,1.069,1.069,0,0,1-.529-.123l-.591-.279Zm.088,6.748,4.357-6.077,1.725.607-.675,7.393L32.3,49.089l.215-1.54-1.864-.676L29.8,48.229Zm4.783-4.615h.019l-.463,3.281-1.365-.5Zm2.235-.5,4.577,1.109-.317,1.129-1.541-.381-1.487,5.8-1.427-.357,1.463-5.76-1.547-.392Zm6.691,2.409h0l.695.059a1.3,1.3,0,0,1,.748.319,1.027,1.027,0,0,1,.209.753,1.941,1.941,0,0,1-.2.621.93.93,0,0,1-.424.3,1.6,1.6,0,0,1-.608.059l-.6-.059Zm-2.044,5.932.655-7.111,2.729.216a2.754,2.754,0,0,1,1.031.319,1.215,1.215,0,0,1,.617.655,1.979,1.979,0,0,1,.156,1.067,3.29,3.29,0,0,1-.22.805,1.938,1.938,0,0,1-.44.583,2.7,2.7,0,0,1-.724.239v.031a1.36,1.36,0,0,1,.588.235.786.786,0,0,1,.323.435,2.793,2.793,0,0,1,.121.621,9.247,9.247,0,0,1-.063.973c0,.249-.016.469-.016.641a1.428,1.428,0,0,0,.049.405.357.357,0,0,0,.176.229v.089l-1.6-.128a.763.763,0,0,1-.112-.376,1.162,1.162,0,0,1,0-.373l.068-1.388a1.024,1.024,0,0,0-.161-.684.686.686,0,0,0-.621-.269l-.787-.117-.289,3.041Zm7.267.432-1.5-.045.268-7.124,1.463.019Zm.513.145,1.595-7.267L51.2,44.16,53.54,51.2,52,51.265l-.424-1.452-1.967.068-.249,1.532Zm2.548-6.064h.024l.887,3.175-1.468.059Zm4.241-1.663,4.033-.816.259,1.164-2.591.537.381,1.652,2.42-.517.26,1.175-2.431.5.42,1.863L60,48.811l.279,1.135-4.147.847Zm4.523-.939h0l4.484-1.389.357,1.136-1.521.479,1.9,5.635-1.432.463L60.977,43.5l-1.515.469Zm6.053-1.956L66.5,40.3l2.127,4.552a2.073,2.073,0,0,0,.313.572,1.246,1.246,0,0,0,.429.284.864.864,0,0,0,.535-.077.573.573,0,0,0,.429-.363.582.582,0,0,0,.069-.5,2.715,2.715,0,0,0-.2-.576l-2.088-4.559,1.351-.605,2.092,4.563a2.707,2.707,0,0,1,.289,1.119,1.689,1.689,0,0,1-.187.861,1.275,1.275,0,0,1-.532.587,2.343,2.343,0,0,1-.749.464,3.255,3.255,0,0,1-.675.211,1.6,1.6,0,0,1-.679.112,1.378,1.378,0,0,1-.641-.187,2.046,2.046,0,0,1-.617-.468,3.123,3.123,0,0,1-.5-.847Zm8.26,3.941h0L69.84,38.595l2.407-1.325a2.585,2.585,0,0,1,1.025-.317,1.949,1.949,0,0,1,.9.215,2.8,2.8,0,0,1,.713.8,2.6,2.6,0,0,1,.313.8,1.334,1.334,0,0,1-.068.713,1.576,1.576,0,0,1-.451.593l.024.053a1.431,1.431,0,0,1,.621-.148.986.986,0,0,1,.5.153,4.078,4.078,0,0,1,.471.5c.171.244.356.5.557.84a3.636,3.636,0,0,0,.317.524,1.614,1.614,0,0,0,.293.337.5.5,0,0,0,.293.123l.045.024-1.415.792c-.107-.1-.2-.171-.293-.259a4.053,4.053,0,0,0-.269-.313l-.7-1.219A1.419,1.419,0,0,0,74.613,41a.944.944,0,0,0-.709.112l-.705.371,1.516,2.676Zm5.209-2.939L74.1,36.233l1.947-1.5a2.9,2.9,0,0,1,.739-.425,1.6,1.6,0,0,1,.724-.167,1.519,1.519,0,0,1,.693.191,1.759,1.759,0,0,1,.647.559,1.822,1.822,0,0,1,.367.649,1.792,1.792,0,0,1,.059.671,1.317,1.317,0,0,1-.289.587l.011.035a1.328,1.328,0,0,1,.728-.2,1.65,1.65,0,0,1,.739.117,3.041,3.041,0,0,1,.651.581,3.649,3.649,0,0,1,.435.715,2.124,2.124,0,0,1,.108.719,1.762,1.762,0,0,1-.273.792,3.975,3.975,0,0,1-.748.8Zm-.376-8.867h0l3.085-2.627.8.924-1.977,1.655L81.3,34.256l1.867-1.584.8.891-1.873,1.571,1.325,1.476,2.053-1.775.793.915-3.2,2.693ZM18.779-50.871c10.143-4.656,19.557-6.915,28.721-6.915h.293c9.184,0,18.593,2.259,28.736,6.915Zm-2.64-.895a1.348,1.348,0,0,1,.6-.337l.029-.044a73.076,73.076,0,0,1,30.888-7.561,72.806,72.806,0,0,1,30.883,7.561l.045.044a1.2,1.2,0,0,1,.757.543l1.619-3.263A71.646,71.646,0,0,0,47.92-63.307h-.679c-10.476,0-21.455,2.812-32.683,8.421ZM10.451-63.121,8.929-66.256l-.676-.132q4.074-1.892,8-3.419l.9,2.216,1.415-.573-.8-2.165A91.233,91.233,0,0,1,36.5-75.112L36.809-73l1.908-.264-.225-2.1a71.861,71.861,0,0,1,9.189-.495,67.461,67.461,0,0,1,9.444.548l-.236,1.976,1.883.205.295-1.952a96.135,96.135,0,0,1,18.823,4.857l-.763,2.152,1.295.484.828-2.117c2.6.968,5.213,2.117,7.892,3.345l-.517.107-1.555,3.164-.441-.22a3.171,3.171,0,0,0-2.181-.185h.011a2.455,2.455,0,0,0-1.571,1.32l-1.857,3.888a86.666,86.666,0,0,0-10.711-4.1l1.12-4.133A2.53,2.53,0,0,0,68.406-69.3c-.313-.167-.669-.368-1.007-.509a4.673,4.673,0,0,0-1.116-.068,2.431,2.431,0,0,0-2.24,1.868l-1.115,4.2A70.469,70.469,0,0,0,50.513-65.5v-4.244a2.529,2.529,0,0,0-1.741-2.431,4.034,4.034,0,0,0-1.091-.187,3.98,3.98,0,0,0-1.12.187,2.474,2.474,0,0,0-1.629,2.431L44.923-65.5a68.677,68.677,0,0,0-12.5,1.679l-1.1-4.187a2.413,2.413,0,0,0-2.216-1.868,4.683,4.683,0,0,0-1.129.068,10.124,10.124,0,0,0-1.021.509,2.526,2.526,0,0,0-1.023,2.772l1.125,4.133A83.205,83.205,0,0,0,16.4-58.348l-1.844-3.829a2.5,2.5,0,0,0-1.492-1.355,3.094,3.094,0,0,0-2.112.167Zm-3.76-4.4q3.836-1.79,7.637-3.267l-2.816-6.368-3.34,1.483.64,1.423-1.325.66L6.811-74.95,3.7-73.454Zm12.528-5a96.033,96.033,0,0,1,15.033-3.752l.137-.317L33.151-83.5l-3.5.611.324,1.668-1.692.372-.445-1.723L21.82-80.961l.421,1.657-1.516.471-.484-1.609-3.56,1.227ZM39.807-76.99l-.18-.167-.552-7.183,3.971-.343.112,1.653,1.271-.04-.023-1.721h6.748l-.019,1.721,1.281.04.107-1.653,3.956.343L55.9-77.157l-.181.181a80.455,80.455,0,0,0-8.04-.431,75.256,75.256,0,0,0-7.875.416m21.519.748A99.736,99.736,0,0,1,76.29-72.461L78.93-79.3,75.385-80.58l-.523,1.688L73.512-79.3l.431-1.613-6.28-1.672-.424,1.628-1.64-.405.3-1.527-3.545-.68-1.188,6.979ZM81.2-70.692c2.512.984,5.071,2.084,7.623,3.3l3.043-6.06-3.109-1.5-.661,1.359-1.349-.66.651-1.423-3.345-1.483ZM86.3,1.525V-50H9.248V1.525A38.551,38.551,0,0,0,47.793,40.067,38.427,38.427,0,0,0,75,28.785,38.41,38.41,0,0,0,86.3,1.525M67.512-20.8a.258.258,0,0,1-.112-.013.115.115,0,0,1-.069-.119v-3.144c0-.029.025-.1.069-.1a.209.209,0,0,1,.151-.053l2.381.689v-16.32a.084.084,0,0,1,.031-.079l.864-1.828c.049-.132.377-.156.461,0l.86,1.828c0,.02.035.055.035.079v16.32l2.367-.689c.064,0,.127,0,.165.053.036,0,.069.073.069.1v3.144a.127.127,0,0,1-.069.119.318.318,0,0,1-.1.013h-.064l-2.367-.836v5.268a.182.182,0,0,1-.172.191H70.069a.18.18,0,0,1-.137-.191v-5.268L67.55-20.8ZM76.4-27.192V-38.024h.411v10.832h2.073L76.9-36.3v-1.727l1.84-.127v1.613l-1.42.172,2,9.173h1.477c-.621.964-2.26,1.659-4.187,1.659s-3.565-.695-4.187-1.659H73.9l1.96-9.065-3.311.332v-1.908l3.761-.191v1.767H76.29l-1.977,9.065Zm-10.7,0h2.072L65.8-36.257v-1.767l3.769.191v1.908l-3.335-.332,1.975,9.065h1.5c-.625.964-2.284,1.659-4.211,1.659s-3.56-.695-4.181-1.659h1.467l2.005-9.173-1.413-.172v-1.613l1.828.127V-36.3l-1.964,9.105h2.053V-38.024h.407ZM35.313,34.193A36.038,36.038,0,0,1,27.2,29.748H45.817l2.705-2.6H41.475l7.087-7.135H43.016l6-6.02h2.743l-3.472,3.492,5.932.015-6.843,7.139,6.94-.019-5.177,5.125H68.363a36.622,36.622,0,0,1-8.117,4.445ZM83.582-12.251H59.111V-47.329H83.582ZM26.725-16.256a.248.248,0,0,1-.2-.176,24.281,24.281,0,0,0-.807-4.925,30.148,30.148,0,0,0-1.091-2.977.465.465,0,0,0-.861-.064,14.5,14.5,0,0,0-1.056,2.631,29.2,29.2,0,0,0-1.036,5.336c0,.083-.119.22-.231.176-1.305-.049-2.655-.581-4.691-1.908a.23.23,0,0,1-.077-.22,17.466,17.466,0,0,1,2.753-7.741h3.12v.469h3.145v-.469H28.76a16.978,16.978,0,0,1,2.769,7.741.22.22,0,0,1-.1.22,9.237,9.237,0,0,1-4.675,1.908ZM23.16-27.671H25.2v1.443H23.16Zm2.181,8.793c-.376-.011-.757-.011-1.095-.011h-.324c-.337,0-.629,0-.913.011a21.069,21.069,0,0,1,.576-2.436,13.864,13.864,0,0,1,.563-1.575c.271.665.491,1.335.675,1.956.2.735.381,1.369.519,2.055m-5.747-8.984A13.624,13.624,0,0,1,17-33.075a47.574,47.574,0,0,1,.225-5.228,9.968,9.968,0,0,0,1.985-1.329,2.845,2.845,0,0,0,.6.675,3.708,3.708,0,0,0,1.311.655c.361,1.037.763,2.045,1.188,3.013.431.992.876,2,1.311,2.875a.9.9,0,0,0,.211.211.516.516,0,0,0,.293.088.517.517,0,0,0,.269-.088.5.5,0,0,0,.191-.211c.435-.875.909-1.883,1.335-2.9A28.757,28.757,0,0,0,27.092-38.3a3.775,3.775,0,0,0,1.335-.665,2.341,2.341,0,0,0,.557-.664A8.864,8.864,0,0,0,30.941-38.3a40.673,40.673,0,0,1,.255,5.228,13.811,13.811,0,0,1-2.583,5.213H25.695v-.469H22.549v.469Zm1.556-13.409H21.2c.661,0,1.228.044,1.736.093.436.013.821.088,1.164.088h.148c.3,0,.62-.075,1.021-.088a17.282,17.282,0,0,1,1.727-.093h.053c1.233,0,1.521.851.641,1.516a2.72,2.72,0,0,1-1.129.537.93.93,0,0,0-.231.1.44.44,0,0,0-.141.233c-.337.993-.764,2-1.169,2.944-.288.715-.6,1.375-.895,2.093-.337-.733-.627-1.379-.939-2.093-.411-.948-.783-1.941-1.115-2.909a.558.558,0,0,0-.167-.268,1.034,1.034,0,0,0-.22-.1,2.882,2.882,0,0,1-1.145-.537c-.944-.695-.669-1.516.612-1.516M31.568-38.16c.112.033.2.068.312.1a.938.938,0,0,1,.827.915,5.116,5.116,0,0,1-1.177,3.755c.057-1.491.125-3.2.039-4.772M16.681-33.388a5.1,5.1,0,0,1-1.209-3.755.939.939,0,0,1,.833-.915c.1-.035.228-.069.317-.1a46.4,46.4,0,0,0,.059,4.772M36.476-12.251h-24.5V-47.329h24.5ZM81.66,12.724H13.908A34.372,34.372,0,0,1,11.976,1.555V-11H83.582V1.555A34.511,34.511,0,0,1,81.66,12.724M64.592,5.78h0a3.173,3.173,0,0,1,2.377-1.017A3.236,3.236,0,1,1,64.592,5.78M21.948-5.781l.361-1.951s.269,1.3.607,1.447a8.221,8.221,0,0,1,1.927,1.164c.695.553,2.729,3.644,3.721,4.251.96.572,3.668.737,5.224.489,1.608-.236,2.131-.1,2.777.381l.445-.216s1.687-.7,2.195.284c.491.968-.161,2.509-.225,3.228h6.661a2.8,2.8,0,0,0-.855-1.452C43.6,1.065,42.8.537,42.248.165c-.753-.488-1.023-.669-1.272-.644a.191.191,0,0,1-.18-.139c-.005-.059,0-.156.072-.165l.739-.573a.205.205,0,0,1,.211,0,3,3,0,0,0,2.025.877,2.42,2.42,0,0,0,1.941-.955A2.273,2.273,0,0,0,46.2-3.2h-.581c-.117,0-.181-.049-.181-.128V-4.489c0-.113.064-.148.181-.148h.112a1.657,1.657,0,0,1,.323-1.389,1.511,1.511,0,0,1,1.228-.5h.079a1.32,1.32,0,0,1,1.08.5,1.712,1.712,0,0,1,.309,1.389h.121c.084,0,.176.035.176.148v1.159c0,.079-.092.128-.176.128h-.077l.023,1.016,2.123.4a15.462,15.462,0,0,1,0-1.893h-.209v-3.1H65.585v3.1h-.112v2.441h2.453c.333-.093.392-.235.373-.715V-4.916a.918.918,0,0,1,.259-.7A1.238,1.238,0,0,1,69.512-6a1.174,1.174,0,0,1,.895.367.829.829,0,0,1,.244.719V-.064a.565.565,0,0,1,.265.229.728.728,0,0,1,.063.475L69.972,3.089V4.445a.15.15,0,0,1-.084.127,4.517,4.517,0,1,1-7.463,3.433,5.055,5.055,0,0,1,.309-1.653l-9.7-.1a3.92,3.92,0,0,1,.944,2.524,3.778,3.778,0,0,1-7.556,0,3.724,3.724,0,0,1,.568-1.985l-1.643-.133c-.084,0-.152-.059-.152-.176V4.869c0-.053.009-.107.044-.107.024-.044.044-.044.123-.044h.752c-.039-.147-.092-.293-.16-.484l-.04-.191H39.005a1.043,1.043,0,0,0,.495.825c.469.379-.92-.107-1.208-.527-.255-.431-.095-.167-.137-.3h-.763a2.8,2.8,0,0,0-.24.845c-.093.681,1.653,3.364,1.653,3.364L37.64,11.5s.427,1.085-.547,1.223a2.14,2.14,0,0,1-1.375-.209l1.091-1.248s1.483-2.077.343-2.972a18.087,18.087,0,0,1-2.539-3.116c-.224-.332-.352-.529-.352-.529-2.2.3-4.445.788-6.7.363-.251,1.965-.509,3.976-.757,5.981l-.343,1.36a2.407,2.407,0,0,1-.988.233c-.451-.059-.485-.312-.485-.312l.984-1.184-.2-5.888c-1.4-1.564-1.036-1.916-1.056-4.068-.464-1.613-1.125-3.321-1.364-4.1C23.1-3.781,21-1.551,20.608-1.595c-.4-.084-.852-.675-.739-1s2.079-3.189,2.079-3.189M37.568,3.3a3.946,3.946,0,0,0-.176-2.26,1.637,1.637,0,0,0-.4-.62c.669-.48,1.2.2,1.207.777.045.356-.112,1.276-.112,2.1ZM68.205,8.005a1.256,1.256,0,0,1-1.236,1.251,1.259,1.259,0,1,1,0-2.517,1.251,1.251,0,0,1,1.236,1.267M66.969,5.081a2.916,2.916,0,0,1,2.876,2.924,2.9,2.9,0,0,1-5.791,0,2.933,2.933,0,0,1,2.915-2.924m-14.208.929V5.975m-1.52,2.8A1.054,1.054,0,0,1,50.209,9.8a1.041,1.041,0,0,1-1.032-1.023,1.019,1.019,0,0,1,1.032-1.052,1.031,1.031,0,0,1,1.032,1.052m-1.032,2.176a2.2,2.2,0,0,1-2.216-2.176,2.209,2.209,0,1,1,4.417,0,2.2,2.2,0,0,1-2.2,2.176m0-4.069a1.873,1.873,0,0,1,0,3.747,1.874,1.874,0,1,1,0-3.747m4.836-4.367a.327.327,0,0,1-.156-.1,3.248,3.248,0,0,0-1.373-1.237c-.211-.172-.46-.3-.655-.48a.583.583,0,0,1-.339-.567V-2.093a.593.593,0,0,1,.475-.5h2.048a.19.19,0,0,1,.192.191l.005,4.744a.15.15,0,0,1-.133.171Zm6.06,0h-.053c-.075-.02-.108-.053-.108-.171L60.959-2.4a.168.168,0,0,1,.161-.191h2.02a.62.62,0,0,1,.517.489V.165a.518.518,0,0,1-.317.5,8.173,8.173,0,0,1-.689.509,3.591,3.591,0,0,0-1.4,1.237.168.168,0,0,1-.147.1M59.8,2.044H56.391a.413.413,0,0,1-.42-.4V-2.269a.457.457,0,0,1,.42-.431H59.8a.452.452,0,0,1,.431.431V1.647a.411.411,0,0,1-.431.4M1.535-28.463c-.713-5.116,2.729-11.708,6.207-14.2.253.425.453.881.675,1.34v11.811a10.318,10.318,0,0,1-1.58,2.147c-.1-.117-.171-.205-.268-.308A2.7,2.7,0,0,0,4.627-28.5a2.726,2.726,0,0,0-1.659.612,2.561,2.561,0,0,0-1.433-.577m3.727,2.181v0a2.594,2.594,0,0,1,.733,1.619A1.725,1.725,0,0,0,6.4-25.749a1.775,1.775,0,0,0-1.775-1.775,1.943,1.943,0,0,0-1.1.377,2.749,2.749,0,0,1,1.688.821l.02.015v.029ZM2.631-19.431l-.084.407c-.468.567-.933,1.237-1.363,1.873-.241-.68-.495-1.4-.788-2.04.077-.449.167-.832.244-1.164.132.011.244.011.357.011.137,0,.268,0,.381-.011a1.774,1.774,0,0,0,.284.289,2.556,2.556,0,0,0,.968.635M.288.992c0,.627-.009,1.287-.025,1.913a2.805,2.805,0,0,1-.2.537c-.387-.431-.808-.929-1.281-1.4-.333-.319-.709-.617-1.061-.979V.757A2.6,2.6,0,0,0-1.305.416,2.35,2.35,0,0,0-.157.923,1.725,1.725,0,0,0,.288.992M1.975,24.04c.181.975.368,1.972.572,3l-2.757.513c-.225-1.095-.429-2.181-.607-3.281.676-.053,2.064-.187,2.792-.231M-.779,6.68c.119-.568.22-1.14.377-1.727C-3.1,1.251-7.9-1.595-11.268-2.035-10.971,3.912-6.72,10.7-.793,10.993a11.842,11.842,0,0,1-.141-2.7c0-.095.019-.187.019-.284V7.863l.011-.039V7.609l.025-.035v-.2h0c.029-.268.069-.46.1-.7M.288-15.649a18.192,18.192,0,0,0-4.445-8.207C-7.5-18.7-8.139-10.672-3.908-6.427a5.81,5.81,0,0,1,.695-.308A2.725,2.725,0,0,1-2.359-7.7a1.533,1.533,0,0,1,.588-.273,14.137,14.137,0,0,1,.992-5.292l.029-.117V-13.4h.025l.02-.035v-.035l.013-.019.025-.015H-.66v-.075l.02-.008v-.053h.013v-.051h.015V-13.7h.02v-.084h.024v-.02c.2-.449.411-.929.627-1.389a2.022,2.022,0,0,0,.229-.459m-.8,7.5.073.009h.108A2.708,2.708,0,0,1,1.4-6.979a1.292,1.292,0,0,1,.209.356c.132,0,.259.036.371.036a3.014,3.014,0,0,1,1.121.453,10.78,10.78,0,0,0,5.311-6.079V-22.663C3.956-20.129-.568-12.6-.509-8.152M94.032-28.463c.705-5.116-2.743-11.708-6.22-14.2-.249.425-.469.881-.671,1.316v11.835a9.437,9.437,0,0,0,1.571,2.147,3.338,3.338,0,0,1,.268-.308,2.7,2.7,0,0,1,1.928-.827,2.77,2.77,0,0,1,1.677.612,2.665,2.665,0,0,1,1.447-.577M90.3-26.281v0a2.607,2.607,0,0,0-.739,1.619,1.622,1.622,0,0,1-.4-1.091,1.762,1.762,0,0,1,1.747-1.775A1.817,1.817,0,0,1,92-27.147a2.862,2.862,0,0,0-1.677.821v.015H90.3Zm2.62,6.851.1.407a22.359,22.359,0,0,1,1.348,1.873,19.909,19.909,0,0,1,.808-2.04c-.1-.449-.192-.832-.284-1.164a3.419,3.419,0,0,1-.352.011c-.132,0-.249,0-.377-.011a.843.843,0,0,1-.273.289,2.762,2.762,0,0,1-.969.635M95.25.992a1.9,1.9,0,0,0,.473-.069A2.379,2.379,0,0,0,96.854.416a2.679,2.679,0,0,0,1,.341v.308c-.367.361-.744.66-1.087.979-.455.469-.875.968-1.241,1.4a1.8,1.8,0,0,1-.224-.537c-.016-.627-.02-1.287-.049-1.913M93.573,24.04c.719.044,2.092.177,2.812.216-.172,1.115-.4,2.2-.617,3.3l-2.747-.513c.195-1.027.391-2.024.552-3M96.33,6.68c-.117-.568-.24-1.14-.381-1.727,2.709-3.7,7.492-6.548,10.892-6.988-.3,5.947-4.553,12.733-10.5,13.028a11.847,11.847,0,0,0,.161-2.7c-.02-.095-.02-.187-.043-.284V7.775h-.02V7.521l-.011-.04V7.428l-.019-.049c-.029-.268-.04-.46-.084-.7M95.25-15.649a18.145,18.145,0,0,1,4.464-8.207c3.351,5.16,3.985,13.184-.248,17.429a5.233,5.233,0,0,0-.691-.308A2.741,2.741,0,0,0,97.91-7.7a1.814,1.814,0,0,0-.583-.273,13.911,13.911,0,0,0-1-5.292l-.033-.117h-.011v-.049h-.029l-.013-.035V-13.5h-.031v-.123h-.019l-.005-.013h-.02v-.051h-.025v-.033l-.019-.059v-.02c-.2-.449-.4-.929-.636-1.389a5.091,5.091,0,0,1-.239-.459m.807,7.5-.073.009h-.1a2.767,2.767,0,0,0-1.737,1.164,1.186,1.186,0,0,0-.215.356c-.112,0-.244.036-.356.036a2.583,2.583,0,0,0-1.1.453,10.681,10.681,0,0,1-5.332-6.079V-22.663c4.412,2.495,8.984,9.635,8.916,14.511M92.248-26.16A1.759,1.759,0,0,0,90.5-24.4a1.734,1.734,0,0,0,1.752,1.736A1.74,1.74,0,0,0,94.013-24.4a1.764,1.764,0,0,0-1.765-1.761m2.019-1.364a1.773,1.773,0,0,1,1.771,1.775,1.749,1.749,0,0,1-1.085,1.605c.005-.1.005-.181.005-.255a2.813,2.813,0,0,0-.777-1.927h-.016a2.862,2.862,0,0,0-1.124-.689,1.769,1.769,0,0,1,1.227-.509M90.3-22.476h.024a2.767,2.767,0,0,0,1.923.767,2.771,2.771,0,0,0,1.481-.425.811.811,0,0,0,.024.137,1.76,1.76,0,0,1-1.771,1.751A1.748,1.748,0,0,1,90.222-22a1.485,1.485,0,0,1,.079-.479m4.167-.6A3.146,3.146,0,0,1,94.684-22a2.129,2.129,0,0,1-.08.684,1.768,1.768,0,0,0,1.707-1.765,1.7,1.7,0,0,0-.171-.728,2.6,2.6,0,0,1-1.672.728M98.385-2.361a1.785,1.785,0,0,1-2.055-1.42,1.763,1.763,0,0,1,1.395-2.064,1.788,1.788,0,0,1,2.059,1.415,1.781,1.781,0,0,1-1.4,2.069M95.544,0A1.733,1.733,0,0,1,93.52-1.375a1.772,1.772,0,0,1,1.373-2.084,3.3,3.3,0,0,1,.513,0,2.722,2.722,0,0,0,1.12,1.6c.137.069.288.181.48.265A1.848,1.848,0,0,1,95.544,0m2.915-.216A2.2,2.2,0,0,1,97.514-.3a2.918,2.918,0,0,0,.405-1.076,2.229,2.229,0,0,0,.621-.059A3.16,3.16,0,0,0,99.9-2.1,1.8,1.8,0,0,1,98.458-.216m-.905-6.563h-.005a2.7,2.7,0,0,0-1.731,1.144,3,3,0,0,0-.493,1.585,1.814,1.814,0,0,1-.681-1.072,1.789,1.789,0,0,1,1.415-2.068,1.724,1.724,0,0,1,1.5.411m-3.54,2.636a2.507,2.507,0,0,0-1.023.891,1.487,1.487,0,0,0-.244.484,1.5,1.5,0,0,1-.407-.852,1.729,1.729,0,0,1,1.345-2.015A1.9,1.9,0,0,0,93.7-5.1l.013.141a2.616,2.616,0,0,0,.3.812M3.305-26.16A1.739,1.739,0,0,1,5.041-24.4a1.715,1.715,0,0,1-1.736,1.736A1.72,1.72,0,0,1,1.56-24.4,1.744,1.744,0,0,1,3.305-26.16M1.276-27.524A1.762,1.762,0,0,0-.471-25.749,1.746,1.746,0,0,0,.591-24.144V-24.4a2.684,2.684,0,0,1,.788-1.927H1.4a2.8,2.8,0,0,1,1.12-.689,1.786,1.786,0,0,0-1.248-.509m3.961,5.048h-.02a2.741,2.741,0,0,1-1.912.767,2.922,2.922,0,0,1-1.5-.425V-22a1.764,1.764,0,0,0,1.769,1.751A1.773,1.773,0,0,0,5.345-22a1.1,1.1,0,0,0-.108-.479m-4.148-.6A2.948,2.948,0,0,0,.856-22a2.468,2.468,0,0,0,.087.684A1.754,1.754,0,0,1-.749-23.079a1.768,1.768,0,0,1,.157-.728,2.633,2.633,0,0,0,1.681.728M-2.832-2.361A1.775,1.775,0,0,0-.779-3.781a1.765,1.765,0,0,0-1.4-2.064A1.778,1.778,0,0,0-4.225-4.431,1.785,1.785,0,0,0-2.832-2.361M-2.9-.216A1.747,1.747,0,0,1-4.333-2.1a2.975,2.975,0,0,0,1.34.669,2.407,2.407,0,0,0,.635.059A2.94,2.94,0,0,0-1.985-.3,2.029,2.029,0,0,1-2.9-.216m.9-6.563a1.724,1.724,0,0,1,1.5-.411A1.769,1.769,0,0,1,.9-5.121,1.746,1.746,0,0,1,.22-4.049,2.684,2.684,0,0,0-.259-5.635,2.647,2.647,0,0,0-2.005-6.779M1.56-4.143a2.389,2.389,0,0,1,1,.891,1.52,1.52,0,0,1,.268.484,1.994,1.994,0,0,0,.407-.852A1.741,1.741,0,0,0,1.887-5.635a3.323,3.323,0,0,1-.028.539l-.02.141a2.987,2.987,0,0,1-.279.812" fill="#ffffff"/>
    </g>
  </g>
</svg>
